<mxfile host="app.diagrams.net" modified="2023-10-05T08:53:49.311Z" agent="Mozilla/5.0 (Windows NT 10.0; Win64; x64) AppleWebKit/537.36 (KHTML, like Gecko) Chrome/117.0.0.0 Safari/537.36" etag="qhpAkDqJU907vlhxpovo" version="22.0.2" type="device">
  <diagram id="C5RBs43oDa-KdzZeNtuy" name="Page-1">
    <mxGraphModel dx="1543" dy="758" grid="1" gridSize="10" guides="1" tooltips="1" connect="1" arrows="1" fold="1" page="1" pageScale="1" pageWidth="827" pageHeight="1169" math="0" shadow="0">
      <root>
        <mxCell id="WIyWlLk6GJQsqaUBKTNV-0" />
        <mxCell id="WIyWlLk6GJQsqaUBKTNV-1" parent="WIyWlLk6GJQsqaUBKTNV-0" />
        <mxCell id="nkoxV0CE2I4P7DB_79t0-44" value="" style="rounded=1;whiteSpace=wrap;html=1;" vertex="1" parent="WIyWlLk6GJQsqaUBKTNV-1">
          <mxGeometry x="900" y="662.65" width="160" height="60" as="geometry" />
        </mxCell>
        <mxCell id="nkoxV0CE2I4P7DB_79t0-39" value="" style="rounded=1;whiteSpace=wrap;html=1;" vertex="1" parent="WIyWlLk6GJQsqaUBKTNV-1">
          <mxGeometry x="680" y="665.3" width="180" height="54.7" as="geometry" />
        </mxCell>
        <mxCell id="nkoxV0CE2I4P7DB_79t0-30" value="" style="rounded=1;whiteSpace=wrap;html=1;" vertex="1" parent="WIyWlLk6GJQsqaUBKTNV-1">
          <mxGeometry x="10" y="470" width="1060" height="400" as="geometry" />
        </mxCell>
        <mxCell id="nkoxV0CE2I4P7DB_79t0-38" style="edgeStyle=orthogonalEdgeStyle;rounded=0;orthogonalLoop=1;jettySize=auto;html=1;exitX=1;exitY=0.5;exitDx=0;exitDy=0;" edge="1" parent="WIyWlLk6GJQsqaUBKTNV-1" source="nkoxV0CE2I4P7DB_79t0-0" target="nkoxV0CE2I4P7DB_79t0-28">
          <mxGeometry relative="1" as="geometry" />
        </mxCell>
        <mxCell id="nkoxV0CE2I4P7DB_79t0-41" value="" style="edgeStyle=orthogonalEdgeStyle;rounded=0;orthogonalLoop=1;jettySize=auto;html=1;" edge="1" parent="WIyWlLk6GJQsqaUBKTNV-1" source="nkoxV0CE2I4P7DB_79t0-28" target="nkoxV0CE2I4P7DB_79t0-5">
          <mxGeometry relative="1" as="geometry" />
        </mxCell>
        <mxCell id="nkoxV0CE2I4P7DB_79t0-28" value="" style="rounded=1;whiteSpace=wrap;html=1;" vertex="1" parent="WIyWlLk6GJQsqaUBKTNV-1">
          <mxGeometry x="500" y="540" width="160" height="310" as="geometry" />
        </mxCell>
        <mxCell id="nkoxV0CE2I4P7DB_79t0-0" value="" style="rounded=1;whiteSpace=wrap;html=1;" vertex="1" parent="WIyWlLk6GJQsqaUBKTNV-1">
          <mxGeometry x="34.73" y="540" width="410" height="310" as="geometry" />
        </mxCell>
        <mxCell id="nkoxV0CE2I4P7DB_79t0-4" value="" style="shape=image;verticalLabelPosition=bottom;labelBackgroundColor=default;verticalAlign=top;aspect=fixed;imageAspect=0;image=data:image/png,iVBORw0KGgoAAAANSUhEUgAAAJwAAACyCAYAAAC3HqYLAAAAAXNSR0IArs4c6QAAAARnQU1BAACxjwv8YQUAAAAJcEhZcwAADsMAAA7DAcdvqGQAAEQMSURBVHhe7X0HmCVXdebf0znnnPPknpzFKIEEykICWxiwMTZgW0Zge9frNWvvZ3t3MYbFBhuMjUDAggGZYIRQmpzz9ITOaTrnnOOe/1RV9+vu9/p1fN0zfr9U86qrbt3433PODXXKY0IAN9xwEdaZv2644RK4CeeGS+EmnBsuxYracF1dXfj+9//N/AtYvz4XDzxwv55/9o/+BJ/43d9Bbm6O/m0PX/vaP5tnQHR0NJ544jH4+vri2LHjKCoqNu9MxWsv/JEjR3HnTrV5dQqf+tQnzLO587kYNDU1w8/PF6GhoeYV52DenaXLOvvoRz6MvLyt5pW7Dysq4TqlIa9cvYb3PfZeHDiwH/9PGjU//4beY8WlpaXquSPw2e3bt+HBBx/A2XPncPbsOb1OspFQjJfHjh3b9frM8L/4xS+xc+dODcPwvX19k8/YwjaffN42n4vBT37yU1yV+BYC23I4AuuMpLyb4WX+rihSU1L0oDRrb2/XayRPXFwcYmNjVGJdvnIVDQ0NOLB//6QkI+IT4vXZ7KwstLUZzxKRkRF6fSas8IynpaVF4ycqyiv0b3vPWOA9HteuXdd8UlKdOnUalVVVmrcvffELeP31X+HCxUsICgrCe9798Cxpw/ulZWVobGrSjkFJSukVGBiIkxLXi3/we1p2Epz18YEPPKdp3r51G4mJiRofw6empuAdkc4s9wsv/JpKS6vOCJKanYgda1teHj74wee1zpg+nwsODkZcbKx29LUkEV1iw5FQX/i7L6G4uGSaNBocGsSd6mqVKE8+8Tg+/ekXcfPWrUlJRly6eBnf+c73NPzuPbvMq8DxEye1YXiQGBYYnpX+xptvqaRbKJgfEsbf31/zx3jS09I0b5R6JNtnP/Np7Nq5A1/56j+pOrbFwYMHEB8fjy2bN+PZZ5/Ra8x7n0jXz33uz0TV+ikJvvh3n0dsTAxe/+WvNAzVvtUZGf52QaGmSeJa0tKqMx48J2iWXM/P107CvJNsf/E//hx79+zWZ9eaRHTZoIENFBISjLffPmJeMUDJs1NIyN7Onn7/4XdNs8+I5OQkvf+jH71qXoH2XlYmj7Cw6bYSG4vhnansmfj473wSf/VX/0ul4759e82rwHPPPat5s9Qs7T0rj1THFvF5UBIFiTSjBLakK/Gxj/2mxsF8ESQRSegIluSzVx8WmC/GRyk4MDCg17q7e/Q3IiJCpbClKdYKXEI4GsI8PvD8cyoxFgJKNX1WGoAS0oJlYPOwrVSG/8MXf19VIHv9QvCv//J1PdiQjkDJZdmBlFgkvvU3D0ew8nj+/AW88p3vqgSlSlxO+Pn6aaf+oz/+r/jRj19VrbHW4BLCUdTzOHX6zGQPt8CeSPVAMvH4xWu/VMPdQkN9gz574vhJrUwLtOeseG1VKsHGffihB/GrN940rywPcnKyVeUPDgwiTCQZ88a0KImsw4KVv5mora1TiZSenq425XKisbFRfz8kNt8Tjz+GwcFB/XstwfMvBeb5ssNDjrbWNpSWlulBo/gDz79f7Zi6ujps2bIFmZkZYuAGKdHYmO+675BKLYJhWIl81sfHBx/96EdETQSit7cX1dKYVrz9/f3Izs6ejJNhYsQ+qqysUpIwve7ubqxbt07DzcTQ4BC6Ojuxe/eUjUjMvJ6UlIQBSYtS+q2334G3t7ddgzwkJARHjh7F6MgoNm7coPmy4oiMjMSly1dw5uxZUbmxSJBBDvNkDHBiZVAQO60ctvm2rnt5eU3Ll/Usy3lFBl+5OTmqYl8R25cdPCoqUsOtBbjXUu8hcLDEwYc1WPn8337B6Vynq+Em3D0EmhZvivQtr6jQAQMHapa2WCtwE84Nl8Jl0yJuuEG4CeeGS7EkldrZN4Kypn609gyjuWcEQ6Pj5h031hp8vdYhJtgbCeG+SIn0R1igt3nHtVgU4Zq7hnC8qANdA6PmFTfuNiQL8XakhSAm1LUrEQsi3IhIsEsVXbhdbyzJBPl6Ill6S3y4HyKDffSaG2sXbaKJGjoGUd7cj2FTG21PCcaujPlvo1osyJ386p75E44PvJ7foqrTR8TzluRgZMQGmnfduJswMjaOisY+3Kgx1l03JQTiQE64nq8EaHq9datNNeK8CfeGkK2mY0jJ9sDGSIQErI4N4Mbyobt/BMcK2lTarRTpSLb/uNai9j1tyHmNUm9Ud7vJdg+C7cj2ZLvSTCqq7zXvLA+oFS2yZUX743150c4J1zc0hgsV3Xp+KDfCTbZ7DGxPDh6Ii9LOJMly4cjttknJ9sCmSHgLsZ0SrrDOYH1mTIB7YHCPIjkqAHEyWiU5OKBYDlRIPNSKnI6hZLPglHAF5og0K849QLiXkR1vtG9xg+NNoQvB5UpTK+aEqWQjBocH5yYcDT6yPiLQ261K73HEhfmpLcdZiKWq1dq2AR2Rhvp7IUM0o4W/+e7n5iZcuxCOiHXx5KAbqwMKFqLDbPfForrN2Pi5NTlIf4nLhRdxrfrs3ITrHTRWErw9uZVyNjzk8jr3cVce9hATYtjovTJQXApqxXYjuChg4bvvfEN/ndpwzsBpPPdxdx3OYAmaxYLqlIOFQF9P/buzpwPlrYXIjNqwRMIx89YBD91SPjoyonvpue9/qcfI0LDGqTHPSGtifBzDy5EO45CD8U12fNu0XHVMg1Hq5TyM1hHMSmt5Qbuf4FSIhY5u4/XH9Ulb5l5p4IQv5+C2JgcjN3HqBRYL0uxTBRD9euvmTekdPfDx8zOuLRF8J2BcxPveffus6tJ0WltaUVBcgKAQGVlRry8VUoa+nn5s3ZyHsNAQ+XNlG2UWpAxj0lHzb9zAmKS9HEWyBYvj6+WNLXlbtR491q3DuJ0iFtf16HLX3owQbE0x5uYWCm7s+Pm1Ft0c8Kg5HVJZV44Xv/ERvPjeP1s+wg0ODuHS9UvI3bLeIMFyNBrJ1dgMf/giPSPDvOSBS5cvITk3Vc+XC+Nj47hTVIl9e/etAuHW4frVqwhLDNc39FcCfBmnp7Eb27ZvW1XCLdmGszAkaikkzMzkcjWYxBMaHoqhoemvu40L0ddJIy0n1nmug6e3l8S8zOJlnhjFmJAtiF14RY7gkBAMjQ7L2epieVvNicSxd3d+zWsbSuQqa3AOaOhFSr/FPbU0ME1KazHpjQsrANpwExOrv0F2eQnnBKzOioIiHPvVUZw5dhaNjW0rUsXjE2O4evo83n7tbVw8cwmjY0xlvlRauUZfMoSU1WUVuH3tlh5dXfNfbGep1kLJXEo4ImPjesTHRGDrnp2Ii1uZF3Q9PDyx4+BeUSNB2HNwt8N5xLsNHsKYyOhIdLa2IjIuDv7+d9+EvMsJt1hVt3BMTgSYPXsNS655gio3KDRUiOaH8KgI+PrcfZspXE+4SRrw1wPj4ytlV1gE88DY2BhGhkfUTloqNA45NCr9tf5ep4drcfd1ItcTTgzXmKQE+PnKiHBsFEU3CuXi0okwE4wxLd1w19XW0IQ7ZZWmLbd03Lp5C2My4isoLEVLUz0aW6f7iFtpBAT66/JUS3092tu60VK3vE5xVhIuJxwVXWRsjO5MWOfpiVCxs1YCnN6ITU5Q4oWEh8DLxxeejhYRp8FZGA9s2bIZ67x8sWlDNqJjExAXFarqbqmjzPnkjims354n9eeJkZExtDY1o69vefawuQLrBkeWp9dTtYyPOl/0tZrFOvwDuMDrOA8T4xJ+2jwI5+B0ytkJjBBMrbK0XOIZ0/O5wOUtp2FEQmt+5OCvdT55uAySltRDlJC9vX1+EnY+hF5prGvvX553S4NDgtHW3LpgmywibspLpD2UF5cjISnZ/IvV7AEfbx/0ds9fjW3Ylof0nIw5K7yzrR3+PlO7G1wJknx81DnZbcGQMfFxCI+Oxpbt642LDsE5OHaO1aecR1nL0ERiqDf8vGdnZqFrqd1d3SguLsKEnDsCb9Hv2vDIMIKCZsc5DRJ3cmISEhIT5dQkshjm42L73aJjwGHnM+edHR0IDw932JTMKe8F+IqK3LLFkJ4ulVSsEw+0tLShsKRAVPU8rRybep8PxkfGkbclT506rupaKgnnL2RLENLNxMIIN1VRzqrg6tUrUsGteOSRR8wrjmD0edp902bJzbScpcNn6JTvQx/6dXh7zb1jWUthm4aLQdKR6GP2mGAHJUVFGBoa1gX5+UDtV9ablHHV11IHxI5bsi3HxjIPw86xd5BAE7h54xaKikv1mj46K5x1SJ74jJxPA/+eFs7OIcHa2jtwp7oGlWXl8pedMDaHxrmKsKQqiTGfo7ikBIVCOk+uAdu5P/NQrHIZiUmx1LPEXZ7zgvTi3p5eVNfVob2zA61tHeaNlcCESoExGSzk37ptXrsHIFJqjG/OV91BVU3NmvTjOxcmCdc9OI7ReYrzxWMCBbdvKwmoJgtu0g39yqRJiVFQVKyqqqKyQtTPiKFS7gFUVlSgu6dHyVZcWHRXlWtaTjv6V1rKeWDL1q24/9B9ePDwIWzbsUOvrQQY65NPPIHM1FT89sd+G15eniuUkmtBu7l/YBDpKalITkg0r949mEa4ZZVy7HU2h87TyehydHRUJNy4GPFe6p2by05GGGN5iL8LhsZvpGH8QpeyfH194CnpcKqGBjZttakw/F3bFDTyadaJ+Ut1mpGRjg052UhOSkRGZqbWq1EHxjN6skaho1TzXBHitw7RQcYnuBY0Sp0JKfjExBiaG5vVcO+TBoeHJ3x8/ZRorJRxIdvw0CDWSTh/IUdKagribL7eMm9IWsPDQ6i5U42GphYMS6fxklGpt6Q1LvnzlLRGRoYxMjQk5+MIDw1BWnoaQoJnl2ktgeRhJ2luacOdqir0DQ5pHbJcXKUh2Jn4bofHxCj8fXyQmpKE2PhYaRvHpFv1aRG9aoPUCG94ychmMYRjJY2MjqDwdgE6+wbhGxiCuKRUJYAxyWEfYyL5mmrvYKi/B5EhAcjJXa/SydnIqq9/AAUFRTLSHkNEdBzCoqWynfTw/t5etNTdgcfYMNLSUhAfH+e446wCWIeU/KWlpWhp74SPfxBik9Ph5T331A7rsLmuGgO9XQgN8MXGzZtUk1gjYAtrbov5omw5qSQenIo4fvIM/CJF3G/ajqS0TIM4TsAwCRI2Y+M2ICAKR46fRDu/HmiPPJqWh3655tzFq4hOy0WmpBURE+eUbLwbGBSE1NzNSN6wDVV1zThz5pyh2tcCpGz8ftfRYycw4h2E9E07kJSR45RsBOswPlXqUOrCPzoFx06cRqujOlwl2CVc79C43R7gCOyRLFJ9XR2u3yxA7ra9CAw2eogVzVzSzRYMFRIRgY27DuL67SL9ko0tidRGEVy9fBU9wxPYsGOvfqVmvikwjBGOb0d5IDV7I2JSc3D67HlRT8a11YDWIcnW0YEr125g/c4DiIgyzIv51ZwFI3RgUDDW7ziAfKnD2praVSvXTNglHMnWNbCwHt/Z2YHCsirk5O3SnrawSpoNVlDOlh24JgTu5W4ImworKS7GhF+I9mZiKWmRpuwccSIlL126vOR8LxZMd0hszEtX85G9daeqvaWWa52YRTlbd6Gkshbtonls63C1YJdwRKcQbr69gobtrcISJQifmWkzLBas9OwtO43vhZpx8pOPzR09iEte2Kcp5wJjDgoNg3dQOMpKylanYaQOL4nUzpI6XOe5fN9N1o67dQcKi0vNK6uH5s4mx4SjlPP2MkZCc0LUQGNDEwJCIidHThZYWKvpFtuEtF0CwmJQV9egad26dRvJWRvMu1OwjX+xacUmp6FWRrnL1WHmC6pSjkR9gkJ1FD8TVi3y37lGn47AdvCVzsSvH64G/HyNXTiXS504s+FX65y/gDKBuvp6RMYlmH9PQWf7r5zFkV/8O0689Uv9pKNRacZB2J7bAys4VqSZ9anHwdFx/YrfTHAH7rmjv8I7v/gJTh9/Z9oi+Fzxz0RAcCi6Og3fZq4Cc9rS0ozohKltWLYozr+Id/7jVRx/8zXUS13PLI9Vh3OVk3VYU1Nn/uVaxEclqF8R+heZk3DULP4+c0s5FnJwZFTsttkk4L0NYrjGxSdi/4OPws9zHPmXLqCyuAA3r1xA/oWzuHr+JPoGHG8zUltEMjImWVUfIPJrT/54evlg/wOP6g7cA4cfQm1ZIUpu5aP05jVcOn0MxTev4/b1q2ZoxwiPSUBLc5P512wYxj1LJoeeSxWa14zri8Pw8Ci8fey7yMjZuhsJCYnYfvBBBAf4SN1dREXBLdyS3+tSh9fPnzLXpR2nT/OEC4qrhfftNr5wOCfhuCLQ7eTjH9wQqaM7OzTQK9o20hhS4MG+HgSFRaK/pxNpuVsxPDSM9LRUNNUbH5adC+PjYxgZGVEVa6/amJalwknQ9tYWZG7YjIGBIWSkJ8PDy1+p6kxdUnrSp8lcaGqm2h3VPWx9Uqa+AXYE1sDiGpRPUSLbq0OFBGDJjDrsQmBoNCZG+hGTkqM7QXI2bkRTXQ1LZz5gB3Jr5V5Yco5H9j2G7SkH5ibciJOKNzABL8/5j6goCfneqKfYh97ePjKSogR1/jTTCAgIwMjw0LzS8hTDm9LHUwjkKb9eIgHng/6ebgTNuQIxoa4nuIIxPDysqyVjo5QdcxDGCUgUlo9xzgecBSABvX18tA7Z0fjo3HSXNKxtSquE33vqM44Jx02ZXLdzDg+EBgfq7L0jxCYkqdQJDI1EWEQ4YhKTpKK8EJ+cDL+gMEREhJkhZ4NVRFXKl0Y8ZVDi5aTO4pOStdm5uiFJIlZsS7+QCIRHSbrxCdo4c6GtqV6eiTX/mg1KyJTkJCGIN5IS4xAUEoqQ4Cm3oouDB4IDA9DX3Wn+PRsxUoe+0nm0DsNDERGXiAA/H0THxcPLN0DyHGeGtI/BgX4x3p1PHq8kaMs5JFxEwPyH5vr9di4VmX/PRJTYcCScX1AIQkNDEBUnhJMeHZuUAp/AYHVY4wgkT0150aT3pLjoSHSIge2oP8eYOyhiEpM1zej4eBmhCanDwxEVGy93HBOOS0Nc7vJ10jCUJiSeqmfzmPx7EWCOklOS0VhTaVywgyghnI+3J/ylLCFSh2Fiq/r6ekldJqjtFxUbI3Vlv2y82lBVhg2ielcbdgnnJSNTe+842MXEuL55FeDjIaM7GYU6lCBTjUEVYvxlNphDiC3W3IiIQD9Vp0wrMzsDHU01ospmq3vGND2Vqb+npTkDVp4rCq5j65ZNvKJ/uwqcx+TOltiIUCFdlZH6jHq0LZct+JejewRjYbsE+3vD12d1JRxhl3ARAfOYf5uBvLytaL5Tiu4Ow9vhcqCrvQU9rfXYkrdF6tJQ77T/tm3djOLrF9V+Wg5QMlUV3UJOZppKj8VKqqWA0mn9hvWY6O9Ca1MDHfeZd5aG7q5ONFWVYKvU2WqUayZmEY7SLdjXoaa1DykI1dfBA/vQWlOO1oZa88bCYYwz+VZ5Lboaq7F/726NfxJCvODgIOzcvhXF1y6okc8nrOcWAj5Bg7/05lUkRIUiYTV3jUi5mJ+du3dhqLMZ9dWO1et8wTpsESFw38EDi6qflcAsZi1GuhHsodwKc+jQAXgO96I4/7I6KbQw3wL39fagSKSX50gv9u3bY+yds4OI8DAcvm8/WqtLUSHSiS665pMCw1jhOJVQduMiNudmio2Ybl5dPZDqHEju3r0TQV7jKJIO1SsSirDyPVc9Wnfou7jkxhWtw/sO7dcZgbWCafvhKN1Sw6f0/GL3w7HquA26uLAQ3f2D8PYLQHh0AgKCgnSkadknVIn9QrAWkYiDgwPwltqODA1C7vr18BF7Q41gU5U6hMTFFYyy0jIMjk4gUEaNYVFx8PXz03kryz7jXCGnVDpamtDb3QEvIWiiSDT6H2GYtaBuLFh1yHnH0pJStHZ0YXBkDH7+ATI4SNB1Xy4jsmScSjHqsVfKVo9hGY2GBfkjR+owwN9PSTyrjaRebBZiJrFS++FsMY1wMcFe09TpUnb8GpVGTOhuj5o7Vejp7ddvdQ4ODeuLIO3tbejr79PGPrRvP+5/4LCMuGwNW1apMb9lkG/utBiKL5UUFhXrvjxOyEZHRUm6veju7kR//4CGevFTn0R4ZASfNFPgP6s3KToJIb6WlRmSMlnlHhkexjtvv4Pzly9r5wjw90eCjMJjoqMRFBQIHxnxBwUFIDktHYHqOoN15bg8a4JwM6UbsaQt5o4gFXbm1GkhQR+u5+djYMj4iERSQiKrSefnWImszLi4OETHxCBIbDbuGHYu7dbhlW+/gorqas1XYly82HuB2LtnL9548y00t7bopGlmWhpSU5KRmZmJmNhYlbr6bupqQuqF9mRPt0j8lmY0NDSgsblFN6F29XRhVO5R4pEsmzZsQFpKCrq6uvDQux9acBusJuE8//C/fO4veULbzc97SroRTfJwXceQfvooKmS2t0USZEGQSuVTb7z5ti5VHX7XfSjWbTMTSEtNwZNPPYkNMlILCQnBgKjiispKXL+ej8uXr6C4qBBNjY36Xus6T2/4i3phxTETqjblqCyvxO2CQpFsA4gMD8dzz70fx0+eREZaKh56z7vRIY3HAcf9h98lErAdVyXuixcuoKamVr8vESLP8A19I5usiwV2Jmeg1DLzymXD5qYWUZkl+mL42XPncUHyck3ydP1GPsorKqUO+hEdHYUd27bjwP79+uLzQ/cfxiOPvBunz55FteSb9h6zuxCoCWGe24KfKG/qHkaSkGWxn7vi506LG/v1O1v2PgioEo6GamqEjxqstlh2CScV3tbSgn/8+j8Ladbhsy99Brdv3URXZwfi4xNw5epVxInE2bN3L8JkUMAUmCVd05Xe3NTUhNbmZjRJHL0iIZmyn58vQoNDUFffIOHG8NAD9wvJTuPZZ55ETXUN/v3n/4Hc7Cy88MILktUJkSDdCAk1JpoZN6VGXV0dKsrLUS9xjIrKjxJ1m5aajMTkFCU/326namN4h5JQWWrlmFSlbTWOASF/h5Cbu13o3qKjs1M3WnJzpJ+oRhKcS2S0edkJqRIpvdIzsxAVHSnRWsSn75YunbahafAPX/kqhuS5T/7u7yA2ZrYkmQurrlIp3cLtjE6Xm3CsvNMnT+HtY8e0Cp949FHs3rtbl9DYqFxcvnnjJi6KRGPPfuihhxAs6tXAVK/Uhpf/Kssr8NbbRxAZGa7qt1lUUIcY2GNjIzpR3NHRKQZ3O3y8vfHSSy+Z9g0flpgkEltyEPyLqqu2pgblEnd1ba0SMkbysj47G6migklwI33raT4zqmkRdbU1aBBJ3Nraiv7BIXhK44ZL54kX0yBKzAQ/P380NjaIBKtAj0hrOpdJS0lVgsXEkGBWnviPVWLJmxLPwJUrV/Dz136p5/cfOoQHHnpQws7fJFhVwlW0Dk3Yk27E8ks4DzQ3NuHc+fNS8X7I25qH+IT4aVKDFcu3vvKvXRf1cgPrc7JF4u2Gj68p4iWOurp6nDxxUup4HAcPHkCqqEyrQcYlrqHhEXTKoKG5qQFHjp3U5TTaR9wJEh4eqvZhLAkgB92MzSr6ZOPKaFukSbWo9uKyMrQIoblHMC01FX6+PmpjdYjUGZP0/AOMrUXRkZEireMRI0e4SFKWpfpONSorq9AgEtpL7MWkhARk5+ZI2RPUZlUCz7MeSUh2rKtCut6+Pin/QU1vITboqhKuvW90wp50I1Zy0BAqjbF569Y5eybVzHmxVUrLKrB71w5kZmXjxIkTan+969BB+dt4p8ERSMJvvvwynn/+eZVulCitotqomhtFNXd2dukWKQ4soiKjkJiYgDhR7ZRIJECH3G+qr0O9GPDNog57enp0gBElI1+6GyPxw6QcWzZvQnZOjqZJAjdJp+J7FzW1dToij4uLQVZGOpKFqMHcibLQOrODq1euav4ffJiDhvmTjVgtwpWe/wE8xsYn1Iazh9UmnCG1JtSo//GrPxHVNYKkxES8/9mn4SOqiffmSt+WcHzp2QjJf1Wm6LNdXT2iQu+goLAYFVVVqkLDQ8NUUnaJvcf9dyTLhtxcJIttRUJxVYVx9IlRf0tMgLNi7PfLOREcFIzO7i6kJCZpJ8kRSWa84mekSUW8HCPiu41wnY1luPTDZ5fx427zhZDgjNhxlCIbt2ye9bylGnmVBv6J48fR1NyKfXv36Jv550Udc3S2V0ZnGzdtVttPw9vEwzisv14m4Z57Tka1/tpAjQ11IuGa0dLWZo54PXXkGhsTi/jYGERGReuAhfF1Sfi2tlY0NDRKHkQidnXrG/7ceTIsapTTLNGinrdt3ow0c6WCg4xmib+qqhJVMmihVA0PC9GNpumZ2arSrTKy/uao/jlxtxHuxptfRFPRK6tDuBPHjouBHC2E2SSP21SWSA7KAfoBuXTxIm4XFGH7tjzs3LVTR7Waljzf3tomttlR9MlI9cD+fSpF+KxCwvBt/BaOaEUNnhKVTDVGe89P7MBIsbFihVi0ezjHx02M8pAc5vNmmXTqQH4pATmCLa/kRHUnggL9kS6qkc+RuO2i3qk2rfcsImWEGyfxxkgaHCT4yiCjVmy4MomjprZeyxsfF4vMjAykyEEXF0yT7lCNIhj5cCYF7ybCjQ4P4NjX9ur5qhJuw6aN057nFwnPnjmLO9XVyMnKwo7du1Qy2atQPlVVUYl3jhzTtcLIiAi1sTiF4idkIMlIrstXr4kKfkZHvZz0nbNxJG+cwqgoK0fFnSr09Q0gQAiTKAOb1LQ0nST2EYJYatGSpNxHZ6nUNpF63ILOF7jpUotTF/RtwumMGLH9+JE1dWvB6R0Jx5E5SZqRni5SMkNXEYh7iXCWOo1Mf2b1CWdJtIsi0WhHbc/bgl1CNGuClBgQicVphgYx0qnG+FLvgAwofEViRUVF6KiTDnO6u3vw4AOHRXXRgbTxrGXDUW1Oy6vkQy6oX+IqGYWWlVdIGm26t48TxVyLjIoypykWWkZbSDq0PZtF4tbJIIJSsVXUOVUyvyhDInKdt6+vV6Upp11I8OxsekdKMr49a4dQdyPhsu/769UlHBfp8/PzcVkqLy0lGXvETuNkKUeRHPo3tTQLIXqYkKiyQMTFRoukorqK06mOKXXInwkx/utw4uRJVWOHDh6U0WEsXv7WK0K454zRoYQlURvrakVFVqFWVdyExpslEjUpOVkJZ5HVmp9bCuEMKcjnrViNePm1a9qELc2NRlnl4JovJSVXSjgZ7C9ki5XOlCWSL1MIyA5A1c3Yrl66rD5I3ISbCVOSGBVu/B4XwnG2ncZ/Z1cHUsUmGhIpNiCNQD8h1lxZQnwCYuJjdc7OFmy4WdnWdIgJ/TL1xYuXVaVy9YBLQZQwFUIyvrkfGhamUixLGtFY0TCxBGItGCq9DRIatWLQkh2CeW2or1cS0kZs62jX+cCQ4BB1x5UlErxLpDmndB58+EF9mjDq107dzMA9SDipAKlQ3h8dG0O9qMJWqbyBEbo99VT12NjYJAMB+ogbR0JcNLJFwqSnZ4iNxNcAjQrUmJ31XlPtEmysWrH/OkUqcvK3vqlR1FS3rjTQO1KCkDdRpF5SSoqMHI3R4mTuFyglVhq2eRuWzsndNaVcfmts0blAloerK5FiF3rQv56UMUq0BifS6THBmIAxaTyjje49wgkJOKVw+3aB7lGLiIk3X6Sx1Mt0sPJa6qrR3dGKYD9v/V4CjWd7lTULEqcuRVXdwYSHF+JTMnS/mH14YGiwHw3VlRju70NMRCg2bt5o5GuNEY7l4josv+vVMziM0PAoRCekONxMyWZsbahDR0sjfCXIxo0bVXqrBJ1RtnuKcCRJ/vUb6OofRnL2RjXsCUsOzUzM6IWE8e9Abw+qy4sQGx6MTZs3C3flvgNSczBxRUahPoGhiE/N0qkTrWAztak0zQlXMw0L3IzZWF2OTetzkKBLbHbSWQUwF7eFaE0dPUjJzEWAqFKrLIS9XGq5Ke2lDPQqWlNWhFB/b2zdtlWlpW07rSbhLMNn6ZBCUX2eOHkGXkGRyNq8Xcg2ZXuxfPYqyiDB1B1/+jXL240Rr0BcuHBJKkbuscJsQBJyl++pcxeRkLVJHfZZPd+IyYjT+s+4MpWGhYjoWKzfsR+lVXUoKS5hxLPScimYtuThwvlLGPUOxIZtu6f52bMOe9DrJqlY71mbtsFT2uGktIc6W1zNctlgeXJBso0M49Sps0jO3YrwGOulXEfV4wRS6XTsEhqfhrNnL0g9ikqwKkzuNTW14GZhKTbu3A9f/wCjIRYhnfgEyZu1KQ8dA6MoLy0zJMlqNI7kg+U8e+Y8whLSECPqU8tl3F0QrOfYDsnr81QI0L/xWiDdsuSAjXTtWj5SN27TffdLhUWe4LBwhMWnID+f33MwwBWDgpIyZJu+6JYDTC0xPRu1LR26Z221kC91GBKXjBAptz2JvBj4+vkjbeN25N+4aV5ZXSwL4Xp7ezG6zgd+fksn20yERUajq29IR2oEVV9M0sq8YZWxfisKqVqXqbEXArqz6BocRXgU36BfXnBaaWjcGISsNpZOOJEydOnOEdRM0FCnUV5ReAPlBTfAD8nymi3498xrM5GQmqnTAkyrpb0LoRGR5p0p8HuolUW3NK3KksJpKpaxTx2O09JBh5evLrG5FKLqaqtrEZ+cZl6Yjubaqsk65GqKLeZTf6y3hLQsfYtutbFkwrGonT198A8MtKMGJlSkNzU0wMdf7o+NoraqHG2NjagqKUBLQz0qS4UcTvo0R2kDQyO6s9bRV8SpXv0DAnX5y0/S6m5vQ11VBdqbGlFeeEtfRayvueM0LU7frIanyJ7+fhkg2Pex4iNmSnN9HSakM2BsBA13KtAqdVgvdckXpiuKburyIIllD+x83M7FVw1XG0smHJvP8G02G7xHB38hoWGIT83AUE+bTsryxWV+U6HwVj5GBnrR3TP3B8o0bpECnNg19sHZSU3ux6ekIzgkDAnJKSgtEHsoPBJlxYXw9ZpAXUML2oR8zsYWfoHBGOzvM/+aDdsJ2WlRsbEdNPh8MCY9yZFNGhYZg9DQcMQmpWKkvwvtnb1oq6/E0Ng6VFeWISQkSKS6mAJzlI2TQiv/LTXnWBYbjk7x5luUICEEXx4JDovQpRquF87nGwkcwXEdkXNMc9asCR8fX51S4MF12GCRHrpbxMmzHM3R55pjTODa1auS5yFczy8Q6V2D2qYO7QKLpRufM17UcV4uhgkW8nl7eiEsKlaJyDJyl4yzVuD7FauNZVCpHvDz8dYtN47A9wBYqXTbwMNqeL5ruk7OjR209sH46RjR02NCjV/uTp6rYb28DTdjhuNDvm/rKcLPUzdaMh9zgfG2Nzcg2snnl3bu3Cnx+2HHtk2IS0hGchxfql48SCIuv1kDI3vw8uab9h5Sfk/t4Ou8pEySYX0DXwpqLWc5AuczGWK1sSyUT0lJRlNdtfnXbOTm7VTvixHxqUhJTcbGnXu0kjbv2oPEjPXSS+ca3U6gtqIYqalpUp3Su/19RbUae8/sYeP2XVqtm3bu1TRyt25DaFwq0jJSkb05b05yU90O9XXrThRHoD2kAxLz1zi1zhfboB5ITIhDU02FksoesvN2IzjAFxEJqUhKSULaph0I5SeitmyDX1A4cjZtnrMn1leVIcP0sbeaWLoNJ6ouOjoSI32dk1LOXrnZFNZhG2KuJmKofrGnPEV9hYUZbrQ2bdqoBHSUhj3YXrcXhsRkfDUVJUhLTuAF44arIHUYFhaGieEBDPRNH4Xawsr7zDIYf8u/DghP3yPjg33STkuTxMuBZZFw9Cy+dfMm9dhj9PLlaTCOSituX8euXTsmpQe3LyXHRC6LO6tJSNxdHe3wHB3QrVKOGm5FISTnW/R0ijiXebJQsN6Krl/Cpg25k3W4mlgeK1J6KP1/bNmYjcJrF3SHqyPVMC9I5bPSS29cxoF9u8V+mTLiKVEzsjLhLeSoLivSa0tJi092Ctnaasuxa7cQ27jseki5aNPSH16JlHtM63BpYB0WXj0v7ZIjAw3Hbm1dieUhnICNHhsbh/27tqOm+AYaa6vMO+TP/KqOodgLa8uKUStx7N+zE8FBQcZNGzCtvO15SIgMRfnNK+hoMz4ashAwLRrpZbfzMdLRqM4U6V1zqY28FHiAHTcYB6TcNUU3xHQo0aW8xaCpthrVEsc+0Q7xThxOuxLLRjhdYFdJF4yD+/cg3M8TJSLt7pQUYMCc15pqTEMmWX/z1TtO1HKloDz/ElLjo3BA4ggMNN08MG4bMC3GwDfuD+3fjYneVnViyH1udEozFbdxZqXDc2747GxrRcmta2gqL8DOvI1KXnXfL/FqOVYJqvEk/QAp98EDe5ESFykd6hIqC2+iS/Js6+DRKJdt2SD2X59OqBdfO49w/3U4dGCPvkerWMVy2WLltpibUq2ttV2Xpfq5UsCJR16Xgy+O9HZ36XbqjvZWZGem48EHH5zc8m1VpA71nVQWJSj9k9RUV6O+oRHDoxMYlXwxDU6TcFqFbuO7Ozv0zftD+/Zg05bN6n9Ec79WGmOaJmDtsr4gErwTb739FiqqqhEeHoFovtMRFq4OcbT+5eDurAAxPdIy0hAVHaXPOyrXvf1OgwXdGjOhxCi4eRM3bxeipKzUaHBBTGSkvsQSHxOt74vyCAwK1GmM+ZBOIWn8+6uv6vuffCveQxokKz0dQaKWr1y7pvv1OBf31GPvRWZ2jkhQTsfMM25XQAkn5ZX80DsUOyM7CLfj86Xq9q4OVqE6+NmxfTuCA4OwY9cueHoazynmUZb/FIRj7zUmJifw/e//QFcZ2EEvmp+mPHzoEFKEcC2tLSLxOtDd26uv0vELLfyCc0xUJGJIROndHKDw2clKFjAX/ELMD77/b6gUSecro9knH3sMR44ew7NPP6W+QF57/Q19HyA3J0vfq6B6jYgI128kpGdkThGQWCkSascz6o6TsXz7n8Rqbm5W/yV8yaejowOd3d06SqcUToyPVxdi5y5dRmZ6Gp584gmcOXNGX2v88Ed+w4zPwBzNOYn/HBKOkMrma3Bf+vLf68vKn/3MS/jpz36u19jYdItw+L5Dk24TmAJHWvRaVFtbg7qGBvUISSKyIfgFmxi+NihErKqqQkFhETZt2oBzFy7i6SefENL54tvf/a5Ig214Uv4eHhxCtZAxOydbyc/5Ke50KS0tE6lofDWZW835VlRKSor6CSa0hAsqp9H8/Nd6lm9d0RNAU5PxWmAr362Va3yxmr54uTTFtWLas3ylMVMkc3Zurr53q+u30gH4fsMWMQUY9h++8o9Kzpf+8EX1GLoQrBbh0vb+N9cT7ub163j1P36hz330Qx9CcnKSOo2h3cFPZR8/fkKl0OHD79LGt7VrrJTo85abAFqbG3Hm3EW0ikHNl24Ylm/Ye3l6YcumjbhdVIR8aaSwkBC89NIfasMxFsvU1sGHGT+lDV+Krr5zB6Vl5SJtWhAYECjES8L69RuE1FHaUBaNGIeRn+nlJ4npTraxvk5VIV108YUifnQ3NDRYTIZYRIi04haouoZ6kW7NGm9yYoIQPRPxiYnmu7FGKpOS1qYeqqvu4OXvfFfyP4Gnn3gc23fsmAo3D6wW4Vz+5j0b9+L5i7hw6YraUntl+L9j59SkLgnJai4tLlEXpGFhoXjggQcMj5U2FcrQhbdv4/z5SwgXlcjBRmhYCPieJl1lNbCxRYrQrRe/5UrPkls2bUZyUiLiqJ5EItLPiDaqnYYiMek9iS5RK8rLUCkNTMfYEeGh5kvJOfAWydQqZGoUqdsg6pCSl+DrifQXEh4erv5F+G5tZHS0kK4T5WVl6qGJGyGjxGbNFEmekZWlXgGUwPMgDevwRv4NnD1/QT097d29Sz2GzudZC64mHPH232/VX9dKOEIqbMpdF78wM/t5ViolTuGt22LsX1fiHdh/QCRDOEqKivVNLT6/d99edRijFLSXDyHON7/5Mh595D06ZcDt461CQnplYoXTGSDVF+2jGJE8XLTn7hV1nCPgAGdQyEHHOHyhuqi0FI2iEumSiz5BaGcmxsXpV3jS0o11SubV8h5QU31HCF8n6nRQ5xPpaixN1DX9oOjXsxdAkpm427wnFR7/Bmrzv7oahFuHk6I2qfpmOrOxhaXqeJcke+Ott1UK0Mh/XNQIHQHy7jS1MwOUVPQt8gHLt4gZXiWb/Ds4NIQG9ffRhDs1Naipqdb5OBJwQlqkTYx3SsfklFSkmtKRH8ql3cVqo58Q7qLNl1E3wxHhYeGijpvVJcXG9bmgOwvdDKDlmVTmc+Z7PrjbCDfY24FT3zy8fBO/C8EcHJ8EQzAcd9/SAxI9D+3csU0N5etXr6rvjclYVBVPh2Gv6dlkODYybazu7l5UlpfjsqilS1cu41ZBITo7OsWOSkKeSN1douZ3ypEnBjodynSKVKTrsEuXLuHC+fPqXalApO/58+dQXFIqJAvD9rw8Pfjsxo0b9CO/N28VSPgLYhfWqC8R5sTIi0W8/zzgjpYND//f1ZFwjtx1MUZKAjZGt4xYj7zztvbiA6I6c0RaUOrRTjt9+gxKZGS5c8d2tQENp4Rmc5rRMSzn3V7+5reweeN6HZjQV8fA4KDYb366+4ROCOlmNULsKU616HNGqQQqgwQeGBkdQ0lhAa7m56PqTjUiRYrRkU5HV4dIrzCkiKqMlvIQiUJalo1qmd/OrygrRVllpXp8Cg4MRKaoVNptlPCM35C4Vh3I2Tyl1d0m4SysLcIJSZobm3Hh4kWpzE6VaBs2bTKklW2lSjhOjF44d07dsW7YsEHUXRzaWlvRIgdfNKEEZNz0L7Jr+w7Ey31+oJfeKGfFZwMSlS/71NXWStw1Otc1TDesYptxYjojI3NyuYjrnPRdwhEpnc4QTWIncksVS8W5QHrE5Ndw6AOENmGTjEzrGht1SiQgMEA/XpKUkozY2FjDG5SbcCtLOKt/9/b04NjRo0KYdhkg7EWukGidh2nr8DH5jxOhbW1tOjJsFLuLgwB6ESJJOrs6ER0ZhcPvOqRTC5yb4jMO/cMRkhemznmtOiFuuajZ6uoaDIk6jI2JUieB6ZnmhPBCyklCS7yc1G0UgjXIyJkOCOl6bGzMmMzltxXoBoOeyPntBnagMLH16CGdrrno+ckoOZOeTSg34eYLG8LR5erA4IB+u6Gsokr99uZty5MgHjqya5FGouelpuYmtIuNxWkALudQHXGOLlakA0eFHG1S0pw8eVIkUrt+4SYjM12J+M2XvzVFOCYvhzHn1qVv2peWV2jclGDZou5SZbTJ7z5wW7qh8oxnFjLtoDBJNwWJReIYHh7VKZKGhjr1HdwiEpRk8zBHxnw/lSsmAf6BSElORHZWJlLT0lUaGvkx4nETbr4wCUfnelQrHBAkiB2VEBujH9egs+dusbfoH4MTpRwsJCQk6NwZ10R1OkGrndXP5I3KtgYJ/KoMJ49ZrPvuO4S33zmio1RvHy9UiQQrEYLxWxFUXyRtTg4d2SSYXy9kmRjnAsu0UEheDfIY5eBLRHyZnC7NOI3CJS4SsbOzQ6TtCHy8vPQLPfzWfk5urub3xvXr6tb/PyfhtALHtfp4dW5M4KKM3E6dOcunEUF3DuGhOhFKqRcdE6ejPmsuzFC40jRmLkkskszItuO0amvrjBHlnTtKWk4082Mg6elpSEhKhr+/+aERM16FREepOJmYC2EvRX4Vh5K7RSQ811vZGTvaOmQwNCrHhLqnPXjfQTO0c1hlW1XCLct3GqQgFPF3Kot5OidYTs5xcf3UL8AfXlL4uTA8MoEnn3lO3wxTCOGuXDyL4d5qZsAJOADo09cLuTXdfrNOoal9DM+83/gmlytB59jnzx+TQYbhAcoZ9Puouv4sdqqT+jMwIabLGO47/IguJa4q4ZbjSzTsOadPHMPOnB5RVfOpAIJssUptez4dJ883Y/e7PjC5QM20rl8+hc3p3c74Y0Q7E3M88/bZNjz65Ee0TK5EYUEhAkZvIilp9u7m2bDNm9MeN4mSsk74ROzVr/esJuHWdQ6M2U180WBc8zrkH7vnMw67sG7MDDzj0HhnHPbCWQd/VgmatL38zjrMwHpY15wcawjrSLYuIZ1rID2SndL2WAlo3PLPZDrWyV0OLRMP65y/eueugeq/ZZdyjuAxgYrKbly90YarN9slzZWqLQ8UFrfj6NlGHD/fhJFRKZykfddDpFVdXTeOnmmQsjWgscXFXp6WAUo410k5DzQ2D8jI1BcRoT6G4FkRTKC9cxi7tkRi16YIeHML9oqR24WQIrR3jmDrhgjslrJFhnMgdHeVa9LC7x5a4MTmItHTP4KyO92obqSvuJVDX/+wSLdGnLraYnDtXpBwgtGRMZy+3ITjFxrQ07f67rcWiknCcV6nZ8VJN4HICH+8a28sDmznCIaqTn5WQNQFBvniyXcn472HEyWJCWkopnV3SYPZ8IC3tycePZyMJ96dJlrCdM6j9pxWpPH3GkV74Y0pwhHt/SvfYzo6B/D6sVq8drQa3dJDK6oc+9JYCrxFor32TjVeO1KNMrEbq6q70NyxdJtHVzSsBpZDJ1O1sV0DX18PvH2yBq+9XYUSKdeF6y1oqu/FEIXFGpbiY4MDKPn7z04n3MpLOQ+8W3rn04+k4elH0+EvHXRUOb7MFSXR7dkVh8cfTsXjD6UgK53rresQwC9mLBkTuHblCsZGBpF/4zYa66tR39Q+ScCVRnZWhEg3KZeULSc1GKOj42jqGARfDV/ualxOVP70OxjtrJ1OOGJlpZxVI/I7MQ5vXy/4SY9dEej8k5Fec2MvWrtGoK9vLgO2bt8OT28/bNm8ETHxfJc23Lyz0rDKNFW2xLgg9PeNSEMaf69VtJ74sf7OItySpRwb1dGhsK2YCSQlmLPr9sJbxzTYXLSkiqPDDBcbF4ydW6LgT5FqL9zkof/PCS578fun/E8dLHIdmWpWn3T2tH3oU1SHs/Iz45hMwzw8PZGWFIh9e+JV1dp9hofC+nU9uqvKVLoFbX43PMpahmZ1DS8RBanh3gta2jpx/BiGeyqlEcyby4T65gE884HfQmCA8eFaNu61KxfR01E9VZfLhM7eCTz+1HNaJleiorwCVy4dE5U/t4fOpaBvYAT7Dz2iL327emmLhLvxp48j7qnP2CccERPshcqm3nkv3tMTUX/f8n8HgMKDb2hZMKSJkWW7GV8OuJhwBDeXrjQsl7OrRbjUj39+tkq10DO4AFtOGoi7MbjNaLkPW7IR1tYk3dGxUscqgGRY6WMtwCHhBkbEVjH3pDmESDaqU/dxdx2riTkZRYPYGbjp0n3cPYdICaPhVgkOGcVNmXzNbi6oBuKv+7hrDs4/uGSjhgM4JFyYv6cQahVz5sY9CYeECxXCueHGcsMu4UL8OKFp/uGGG8sIu4Rz9I6DG24sFbMIR+nGzxTda6DbLfqNuxfBcrF8dwNmrTSkRnhPEm6upa3Xf/FzXL18Sc9z12/AE08/q18JXAhYUXyGnrmdgWEff+A+XCmuMK8sDHQq8/3vvoI//59/bV4Bbt3Mx89eNRaVQ0JC8eGP/bbm5an3PICvf/t7iE9I1Hsz8dd/8efmGfD0c89j85Y8XDp/Dm/+6pfmVeC3P/Ep1FZXT16z4n/njV+huGj6h3Jf+PBHkZGVbf7lGP/wxS8gKycH73viKS2P9QzzM9845oLLVxoWIt1ItsSkJC3om7/8BS6cO2Pemd7jOjraHfa+b/7z13Du9CnzLwO2z7JSrXM2/o9/+aaeW2DYmZjvNaK6qgpdnR1aBuJnr/5If//vP31jWidgPmzx03/7vj5z3+H78dHnntFrLS3Nk3Hx4PO217q7u/Ddl7+JQ/IM/+Z1q/4SEpM0DmcgYfcfuk/Pn3/sEf21haNyriVMI9xCbTf69mCv2rp9p75wTKlH6fDJ3/wNJSB75J+8+Hv44FPv03u2oES4JGF+8sMf4Mc/+H+Tz1KKHX3nLT2nROKzlESEVcns0R//jV/D5/7LH2k4kpoHr33p8/9Lr5Ek1jWG+8zv/a4+OxP83sFMycB06utqtQGtfPDXygfBZ+hKNYnf5jJhxcXDkvbWNUo4gh2Hf/O6VX9WWNbJn3z69/WcdWJ7/q1/+bp2Th78m2A9WHli+az6WMvqdZJwi7HdKOVY+Fe+8TWs37BRr+XI7w9//rp6jTzy5uv4s7/8K3z2T/87PvfHn9GKIBF4bMnbht37D+LZD/46nv/1D+mz0TGxOHP9tqqMb//w31X9feLFl3D0rbf0vi0+/LGP41+/92+aXl1tjaoqEv9TEv6hR96H137+M9y4dhVpmVkajnmwB0qrnbkZWoYMCWsLSmCmb+XDUr8En6F0Y56tBrbi4mHBusa6eP7XXzCv2gfr5KiUgx3l4vmzes64qUF279tvhpIOYdYX80V1TrB8Vn2ws6xVTBIu1G9xI9OY2Fi8c/6y9lTigYffM82Wo3Q4deI4nvm1F1BWVqJ/82ClzgTJwWdZyf/45S9pD6cEpDqaCRKaoKSgaqRddOPaFY2b4WnrUOru2LVbw1nhZ4L5ol34yqs/xWc/NV0KVpWXTXYk69cCn2HnICxzworL1s7ktdeOGWbDQL/j77wSLDvDs/PQASLPKe3pW8QiliPY1sdahhLO39sDPl4LH5myMQ8/+LBdo98/gB/ZAP5Yeh57Io1oVhrPeVC10Ibp6+3VcLZgD6W6/cLf/yMOis0zHzAvlHCMm2nS1qHvjWPSYMSJY0f0dyFgfFcuXdRzPm+pRQt0NTYfsKy/8Vsf187gDLQLv/etf8XTz39Qz//5K19WiW0P9jrtWocSLiJg4VtXZlb+TFiVfHDbJlUpb4hamAmqif/zl59TtTz5ITcBjWiqKj5XcOum07T4LAlGycZnaPeVFRdjr6hs9nheo0fLmeBzlsr78uf/N77+imEbEewwVIFUZ9bzlkqk3cZrv/nB92uHYDq2cfE4cfQdDWvl/eFH36v3bWFbZgtbt+9A7Z072jlzZPTP8/0HD5l3p/DR3/0UHt63a5pdeTfAo65zeCIh1PRMNAPOdvy6cW/BJdMii5FubrixWKzzE/vNDTdchWnzcG64sdJwE84Nl2LRhOMs98wlH46YZq4oLCeYHtPlPB1/5wvmaa582SvLUmDlz5oQdmMKyyrhAvwD9BtTroA1obsWwQlc5s92AtwNA0siHJePuHbHNVP2Zn4JpqrSmGW31gW5lmlJF8638eA1SgBr/ZTPE4yD57xvxWlds9Y0CTaktVOF651Mh/cZH6Ws9be15mgPzB/TYViuKBC2afGXcfPgOqZ1nWkw73zWmgPjfd5jXNYCupU/2zJbZbIF47PywWcZpxW/lX/m1Uqf51acVj5n1hN/rXwwb4yb1zg3yHh5WPOErkTX7ctLIxw/AcQ1z5rqKl3e4e4ILjGxsJ/86Id0XZNrqVxH5TXe4xrhX/3tF7WRuQrA57nOSJX2g+8ZhPrqv3xLJ3EZJw/Gz+1C3GFhwZpE5YL1nn0H9D6lK6Us02S8nFSe2cAW/vp//Bk+8QefxuNPPYNr5mqClT6fJX78g+/rctRX/+5vkbd9++Sa8CPvfUzXgK21VU7Scv2Y+eAzhJU/2zJz6e1m/nW9TrBOGB/zy7oi/vsfvaTxf+Er/6STziQY65V19Ddf/DKycnM1zt7eHi2zFaeVd+aD7WLlg3lnGTlpHRAQqPG+9F//26xlvOVCeKAxpzs0OuUuJDDO2ObVW3huaYQ7/MBDuqzF9dP8a9fMq9B9YFwH5PoqD55b64gMy1UIrpuykvk8F/EJzuZzEZ2rE2wwroUyXusZq1FsQbJwyw/vc+WCKwTcBsS1WMLeQjYbmjP4DM+lOeaPYPqPP/W05om/bEwLDMf1Soblc7ZrqyTE3/2fv1GC2Fv3tS0zw1pgPT346Hsn60mvmfliHkhqKzw3D5DY1jIi655xPvLYExrGyjulP++RoBaYd4b1DwzQerHdhGAPQX6Ln5v19jIo1dwzghGTdJ5+/gjb/7x970m2sBIeGbP/9hY/QEs0NTboYrkFfsjMUlOE7bkzfOlr35hcAOeukfiEBI2fsNKbiba2Vv3l2iJ3ePAZrqk6gtVoDE8JaJs/mgXWLwniDJTMlFK//9JnlSALAeupo61Nz20lsbVGSrVsb/mLsPJJ6WmFKSos0F/eszqxLSzpybVme+jsH9HfoCW6NeMqA9HUNeWPL+UpY8/h3IQzE7Z90BYUy7Q3fvbjH05uDCTYW8MjI9V2oL3Ac6sHzwXunrXi5LO0M3bu3qNqgde+JFJkJv5U1BErkuEp2bghgJKG6druVbOFtSuDe/X+4Hd+S3djEEyfpgDT4i//dgaWjelQcnChfSGwNl4y78xHiahKrpEyX7zGjsB1Wntg/hiGu0q4/sq8kvjMO80Fe3nn1qUf/eB7mpY9NHYN62/gEiQckRZtDJaq2wb1lwhJy0LUwx/HnJ8+Ir5zul718eM7YuFv86UUqiU2HHsoK51Sw5IYFN+ENdVgkc3quQzL5/nLOGzPGYZxUjVa8VjX2EA853XGbcU7Mx3+be1WYVjbdG3BcMw78zwzfatMvEe1zLh5bqVve277jFV+K38zy0bY5sOK37a8M8sz8zmSioSivco6YdyEbT6ssFY+CCst3mc46zrR1jOMo7dbEervhQ/sjTOvLg5Upd8W3hAv7I9HoCm46AXTKeHOlnTgdn0fMmMCsCMjzLzqxmqChOPWdFvCLBWnCttEwg0taeHeFhZvbBfxCaeDhrxUI/Hy5n50mzrejdUF7dPlJFtj56CSzVcM/g2Wg8glYndGqMZX0zGEovqpPY9OCUdxuD3F2Jp0prhdBhAr6QPYDVeDQuRCWaee7xHpZo0ylwrGcyjH0IinSjpRIQKLmFfsu4StMcHe6B0aw8mCNgwMr7y3czdWHiTbMWnPYbG5qPrWL5N0s5AhZpglrI4UtCvpnNpwFmgIvp7fovMrPsLeHWkhSI4yDHM37j5UNPXhZk2Pko3C5H1iZy2XdJuJyxVduFZtfB5h3oQjSLojt9tULxOcNsmVXhEf7jdtBOvG2gQlWquMRovFpqK2IjYlBKq9tVJks0DpdlpU64IIZ4EPX67sRtfAdL+0EYHeKv3cWFvoHRydJJgFTn8cyApFUqTrNhj0SR4WRTgLtW0DOrlXKxJvJvncWHug6owO9kFKpJ9LiWaLJRHODTcWCrf+c8OlcBPODZfCTTg3XAo34dxwKdyEc8OlcBPODZfCTTg3XAo34dxwKdyEc8OlcBPODZfCTTg3XAjg/wP5nOCWT1AAAwAAAABJRU5ErkJggg==;clipPath=inset(0% 10.26% 5.06% 2.56%);fillColor=#f0a30a;fontColor=#000000;strokeColor=#BD7000;" vertex="1" parent="WIyWlLk6GJQsqaUBKTNV-1">
          <mxGeometry x="526.45" y="630" width="96.57" height="120" as="geometry" />
        </mxCell>
        <mxCell id="nkoxV0CE2I4P7DB_79t0-5" value="" style="shape=image;verticalLabelPosition=bottom;labelBackgroundColor=default;verticalAlign=top;aspect=fixed;imageAspect=0;image=data:image/png,iVBORw0KGgoAAAANSUhEUgAAAJEAAAAvCAYAAADjGCgmAAAAAXNSR0IArs4c6QAAAARnQU1BAACxjwv8YQUAAAAJcEhZcwAADsMAAA7DAcdvqGQAAAppSURBVHhe7Zx/UBXXFcePbcIERVSgQSPIA5QfzxgEIVUcf2AgqBM12oloIVM706blmdZMSZNWTSfTYKrxDzFJsVUzSSdagzMBNYlBMIFo/IFUCiqIoBERghDAXyCMOtL9Hvau+5b3gPfIpAL3M7Nzf+zZe3ffPXvv2Xvuu0M6FEgicZJt+TX0IzUukTiNVCJJn7E7nN293UaN1SXUcOEItV2vpht1eeoZyUDH038xDX80hH5iiqKRo8erubbBcGZTiWpKv6DzX2+kO+3fqjmSwQoUyjznJXrEbZSaY41NJTqbv5VqSt7lOAp4zDyPvMaF0UMurpwnGfi0NNdSY9VJqipM547k4Uceo8jn3iM3j7GqxH26KFHl8V1UVfA3vijkqddp9Pip6hnJYAQmTVleOtWX/8uuIll9nV27cp4VCExe9K5UIAmPPk/Ep5B3yC+4R6r4eqt6xhpNiapL9nI4YUZqj8aUZHBhjrFwT9R0MYs7GyOsROi20GUBn8fjOJRIBOiRTFEWjteVf8mhHlYiGFIAhrQ0oCW28DJN4bDtRqeu6LGabPTw6RSUSIwIgxpDmhErJZJInEEqkaTPOKREe/fs0Y7a2q5jo57KykoK9DOpqZ5pbm6mf2zZQm1tbWqOc+C+9Pd58OBB9cwPB+o8duyYmhr4OKREf1j1EtXV1dGJE4U0M3o6lZSUqGecY83qNVaNfPlyTZ+V6D+FhbRr1y41RdTa0qLGugIle2vDW2rKefDC4FkEqLOhvl5NDXweUsNe81RsLE2YMIHjB7IPUFhYGDd8zoEDnGfy9+c8PehlDh86xPFhbm4Uq5SBN/XChftzDsh78sko8vDw4DQapqy0lOPmiRO5TpRz7tw5zkMj2aoLBAaOp0XPPqum7tcv8qA8j3p788uAe0B6xsyZXPbQoUOp6uJFrrOxsVFThsioKBo7ttO4xMsDGTxLaGgofaG8CKIcyOFaAX6bI0eOsGJBfvr06eTq6srP7+XlpT3j0/HxnN8fcdgmunTpEv+IR5UfJmJKBOf9csUKpQEqqEX5oZYsXMQKoGf7tu3cg4F1b6TaHWLQ0wFcPzc2jsvDgTjympqaKGnZctrx4YdaXbaG1WvXrrI8DigQGidtUxo3Mg70VFAWI59+8imXibLRuJvT0jgfz5b080SOo/Ehg+fJ+zKPPtm3j/P14FqhHKnK82ZlZnIcIdIAdYlnzMnJoXfefofz+yXwnV2tq+zISZvUcfHkXiTtEjDOryNh6VItBBUVFZxGiMOSnNyxJytLyxcoCmB1Hqz+82otDoT8hvUbOrakp3McGMu8deuWlp+bm8txAeRmz5zFZeM4evQo5yPEteJeAWQhIzDeD4CsuBZARn9vADL6clAGjpqaGr4Ozw6Ki4utylFeBo4jX/yeDzLQERx6tuZd7nC4J3ojNZWyD+ZS4fECftOVBuX8D97/gI+RI0fxMKMHb//PFi/h82WlZWqufa5fv05jxoxRU8Rl6hHdPvJt2TzRypCx7s11fEybNo3zJk+ezCHw8fFRY10RQxF6sGUJCUoPtol7DT36e+sO8duIIdrY+7kpwxtAPn7P/opTn/iwT5YlJrItgHEdWFZatIYLCgriPAGGjzWvreVz5olmNdc+vr4+bK8A2BSwN2BP9AUMF7jnqKk/pcyPP1Zz7QP7CA379/R0fjbBiBEjtHuDouFFAh/t3MmhHk9PTw6FDEyBcabef7H2F5xSIvDMgmdo4/oNbGz+8U+vss2AL5SYWbNJ6cZVqU4WLFjAthDebH1PZDaHsh2k/7IBSxU52Fwoa/7ceWwowyDtDVA2NCimF3CgDNhw/1SUIeXlFO5J/7JmLdtS6DEhCxmjbRUcHMwNvtJi0ewhkJiUyPeGZ4kKj2DjWyiLqEuAHuiv61LZ9oE8foM313eulBhQYFzrrU0kbAmBPi1sHjH+w26BTSDAOaRxXsgA5Asbx1b5+jKMZSIurtWD68Qh6rR3nTgv4vrykI8ykIdQINL659DXgbjxnChHoK8Lobj2QcaeTcSL0uDeL8xYwstATBELVfWSSKzJ3fwEh3GrTnEI5F+GJN8LUokkfUYqkaTP9FqJ8KktZoHFJ6sIAT53cRjRfwYDkcYh5PVld+fYhRy+fjBrjPjOHTu6le8J/b2gPIlz9FqJlK8Hem3tWqspfXy6CuCbEv4xPbszMlhOKAxkMOmIOSZMQKIBRdknCgr4cxp5RtDIcK/AX1dSXMzzPmVlZ7UJPWcQ95KVmUUvp6SoufaBuwYTpxJrHBrOhGNT79zsDjR8xkcZ9BuLhYqKitRcYkfrb5OTec4EjQhQdmJSEk9GYlLOCJyYkHnl1Vf4WoQA12M+SDQueifM12DuCfXDS48DMlhqoj8HcC8oK/uz/ZzGfA5koDCQx3WQx0uwfds2njiVimSNQ0qESTb8oGgoe2B4QU+CH71Y6THmzZ9P8XPjuQGMYLZbePLF5GJTU5PNiUW4N9DgRmLmxFDhf4u4cVE3nL1bt3fWBcWDCwWO4sx9eyk/P5/2Z3/ODlr0fgCzz1AyzGaD+iv1tOPfO2nYsGG8NOXCpSqeFEWvtXz5cj56+xINFhxSIuGTQo9hBF5tLK+orq7m4Q7KcPjQYaUHOqkMabvZhWC0XzDbi94FoGw0HhrRnn0iVgLo8fPz45lhlI+hzXu0N9cPhcM5IQP/FOqC303vi4OLZfGSxfxcAPeBWXgsARFKK3xcEts4tJ5IrJkBeBvx9uItDg4O4mEL7grhbIQiwNVwpvwsNxwaKz8vjxtE+J6wPCPt7c0cB2i8hGUJ9Pn+/fT4pEl05vRpTWGx3gc21PDhwzldW9t1nwC4H6CEUObW1lbNHdEdcKaK9VF64Ih94Ve/ZjcKlmokPf88l4nlHCgfII11UMC4khFKCDnhAB7I/Ph1hfaWZvq2NIM8/ebQyDHB6ilrhgwZQu7u7mqKKCQkhKKjo+nu3bt05/ZtevH3vyNv9ccFN2/epFkxs8lf9egHBAbSvXv3yM9kIheXh/kHtqxcyedRNhrc19dXk8MKReShHgBFXLhoIV1ReiMXFxfuPcQ1OGfyN1F4eDjFPR1HlRUVLBMQEEDuI9xZBj2RkEccIRQa96N/LnEOsuER4fRdQwMvxIuMjNS896FmMx366ivyUGRQB2hvb+drxQHlg7MW5QwUvinYwmHg1GQOQVHVDcd8Zz8kWLOj9zU9aGDN02DDnu/Myia6c7tVjf3/wReYWDf0ICK+DiUGw/pmQ7kak0is0f9L2ggrkdjAAf9ubG+5ynGJRA/2KwLYQc2I1hP5hL3I4eUz2RxKJAJs+IENrwC24DOiKZF/5HMcYo+iK+ePc1wiAaey1/P+RBjKbG07pCkR9uQLjd3E8dOfvcD7NkoGNzBtCnavYjMH+xNh70ZbdNmzUWy5B1xHhZFpygpy8/STG18NEqA47S1NvA9R/blMx/dsFDRWn6Ly/I3UdrVvf5OW9H+w1R52SrO3b5VdJRJAmb775rjNjY0kAxvsVTU6aIbdrYcFPSqRRNITcqG+5HtBKpGkjxD9D5olAp4foDKzAAAAAElFTkSuQmCC;clipPath=inset(0% 2.41% 0% 0%);" vertex="1" parent="WIyWlLk6GJQsqaUBKTNV-1">
          <mxGeometry x="700" y="669.72" width="152.23" height="50.56402826855123" as="geometry" />
        </mxCell>
        <mxCell id="nkoxV0CE2I4P7DB_79t0-14" value="Generative Network - LLMs, GANs" style="rounded=1;whiteSpace=wrap;html=1;fillColor=#f0a30a;fontColor=#000000;strokeColor=#BD7000;" vertex="1" parent="WIyWlLk6GJQsqaUBKTNV-1">
          <mxGeometry x="514.73" y="760" width="120" height="60" as="geometry" />
        </mxCell>
        <mxCell id="nkoxV0CE2I4P7DB_79t0-15" value="AutoEncoders, RNN/LSTM" style="rounded=1;whiteSpace=wrap;html=1;fillColor=#f0a30a;fontColor=#000000;strokeColor=#BD7000;" vertex="1" parent="WIyWlLk6GJQsqaUBKTNV-1">
          <mxGeometry x="514.73" y="560" width="120" height="60" as="geometry" />
        </mxCell>
        <mxCell id="nkoxV0CE2I4P7DB_79t0-19" value="Text Preprocessing&lt;br&gt;Annotations" style="rounded=1;whiteSpace=wrap;html=1;fillColor=#fff2cc;strokeColor=#d6b656;" vertex="1" parent="WIyWlLk6GJQsqaUBKTNV-1">
          <mxGeometry x="314.7300000000001" y="695" width="120" height="60" as="geometry" />
        </mxCell>
        <mxCell id="nkoxV0CE2I4P7DB_79t0-20" value="PubMed Corpora&lt;br style=&quot;border-color: var(--border-color);&quot;&gt;PMC&lt;br style=&quot;border-color: var(--border-color);&quot;&gt;BioRED" style="rounded=1;whiteSpace=wrap;html=1;fillColor=#dae8fc;strokeColor=#6c8ebf;" vertex="1" parent="WIyWlLk6GJQsqaUBKTNV-1">
          <mxGeometry x="174.73" y="595" width="120" height="60" as="geometry" />
        </mxCell>
        <mxCell id="nkoxV0CE2I4P7DB_79t0-37" style="edgeStyle=orthogonalEdgeStyle;rounded=0;orthogonalLoop=1;jettySize=auto;html=1;entryX=0;entryY=0.5;entryDx=0;entryDy=0;" edge="1" parent="WIyWlLk6GJQsqaUBKTNV-1" source="nkoxV0CE2I4P7DB_79t0-21" target="nkoxV0CE2I4P7DB_79t0-19">
          <mxGeometry relative="1" as="geometry" />
        </mxCell>
        <mxCell id="nkoxV0CE2I4P7DB_79t0-21" value="Chemprot" style="rounded=1;whiteSpace=wrap;html=1;fillColor=#dae8fc;strokeColor=#6c8ebf;" vertex="1" parent="WIyWlLk6GJQsqaUBKTNV-1">
          <mxGeometry x="184.73" y="735" width="100" height="30" as="geometry" />
        </mxCell>
        <mxCell id="nkoxV0CE2I4P7DB_79t0-36" style="edgeStyle=orthogonalEdgeStyle;rounded=0;orthogonalLoop=1;jettySize=auto;html=1;entryX=0;entryY=0.5;entryDx=0;entryDy=0;" edge="1" parent="WIyWlLk6GJQsqaUBKTNV-1" source="nkoxV0CE2I4P7DB_79t0-22" target="nkoxV0CE2I4P7DB_79t0-19">
          <mxGeometry relative="1" as="geometry" />
        </mxCell>
        <mxCell id="nkoxV0CE2I4P7DB_79t0-22" value="GAD&lt;br&gt;EU-ADR" style="rounded=1;whiteSpace=wrap;html=1;fillColor=#dae8fc;strokeColor=#6c8ebf;" vertex="1" parent="WIyWlLk6GJQsqaUBKTNV-1">
          <mxGeometry x="184.73" y="675" width="100" height="50" as="geometry" />
        </mxCell>
        <mxCell id="nkoxV0CE2I4P7DB_79t0-33" value="" style="edgeStyle=orthogonalEdgeStyle;rounded=0;orthogonalLoop=1;jettySize=auto;html=1;" edge="1" parent="WIyWlLk6GJQsqaUBKTNV-1" source="nkoxV0CE2I4P7DB_79t0-23" target="nkoxV0CE2I4P7DB_79t0-22">
          <mxGeometry relative="1" as="geometry" />
        </mxCell>
        <mxCell id="nkoxV0CE2I4P7DB_79t0-23" value="Gene-disease" style="rounded=1;whiteSpace=wrap;html=1;fillColor=#dae8fc;strokeColor=#6c8ebf;" vertex="1" parent="WIyWlLk6GJQsqaUBKTNV-1">
          <mxGeometry x="54.730000000000004" y="685" width="100" height="30" as="geometry" />
        </mxCell>
        <mxCell id="nkoxV0CE2I4P7DB_79t0-35" style="edgeStyle=orthogonalEdgeStyle;rounded=0;orthogonalLoop=1;jettySize=auto;html=1;" edge="1" parent="WIyWlLk6GJQsqaUBKTNV-1" source="nkoxV0CE2I4P7DB_79t0-24" target="nkoxV0CE2I4P7DB_79t0-21">
          <mxGeometry relative="1" as="geometry" />
        </mxCell>
        <mxCell id="nkoxV0CE2I4P7DB_79t0-24" value="Protien-chemical" style="rounded=1;whiteSpace=wrap;html=1;fillColor=#dae8fc;strokeColor=#6c8ebf;" vertex="1" parent="WIyWlLk6GJQsqaUBKTNV-1">
          <mxGeometry x="54.730000000000004" y="735" width="100" height="30" as="geometry" />
        </mxCell>
        <mxCell id="nkoxV0CE2I4P7DB_79t0-31" value="&lt;b&gt;DATA COLLECTION AND PROCESSING&lt;/b&gt;" style="rounded=0;whiteSpace=wrap;html=1;fillColor=#f5f5f5;fontColor=#333333;strokeColor=#666666;" vertex="1" parent="WIyWlLk6GJQsqaUBKTNV-1">
          <mxGeometry x="109.73" y="490" width="260" height="40" as="geometry" />
        </mxCell>
        <mxCell id="nkoxV0CE2I4P7DB_79t0-32" value="&lt;b&gt;DEEP LEARNING ARCHITECTURES&lt;/b&gt;" style="rounded=0;whiteSpace=wrap;html=1;fillColor=#f5f5f5;fontColor=#333333;strokeColor=#666666;" vertex="1" parent="WIyWlLk6GJQsqaUBKTNV-1">
          <mxGeometry x="444.73" y="490" width="255.27" height="40" as="geometry" />
        </mxCell>
        <mxCell id="nkoxV0CE2I4P7DB_79t0-42" style="edgeStyle=orthogonalEdgeStyle;rounded=0;orthogonalLoop=1;jettySize=auto;html=1;" edge="1" parent="WIyWlLk6GJQsqaUBKTNV-1" source="nkoxV0CE2I4P7DB_79t0-5" target="nkoxV0CE2I4P7DB_79t0-43">
          <mxGeometry relative="1" as="geometry">
            <mxPoint x="901.0140000000001" y="699.9923799999999" as="targetPoint" />
          </mxGeometry>
        </mxCell>
        <mxCell id="nkoxV0CE2I4P7DB_79t0-43" value="x" style="shape=image;verticalLabelPosition=bottom;labelBackgroundColor=default;verticalAlign=top;aspect=fixed;imageAspect=0;image=data:image/png,iVBORw0KGgoAAAANSUhEUgAAANEAAABECAYAAAAfkdAfAAAAAXNSR0IArs4c6QAAAARnQU1BAACxjwv8YQUAAAAJcEhZcwAADsMAAA7DAcdvqGQAADRiSURBVHhe7Z0HYFXV/cd/2ZNAAmFD2ILiADfuWketo7Xa2jpqa5ejw9qh1Vat+q91V0Wt1bpa27pBRW1VrIoyVBCUvYlAGNl7/n+f37kneQnvJe+FJKD1Czfv3vvuPffc3/ntM17cxpLaJokC8XFxkhAfJw2NTVJQsEVq6pukT9/c4NuOiojTrUk2LFsk6QNHSb8+mdLU1CSrly6W4eMmSKKWu3b5Yhk0cg9JSYyTdStWyLCx46SuskzyN26R0WPHuGJigT6ycEuBZKalSL9+faWiskrWrFkjw0eP1y+jemVDTXmRbNpaIiNGjrS7Nq1ZJr0H5kmGlrtO3yd7yBjJykiWFR8tlpF7TZSm2nJZu2aDjBk/QeLi4vWO6J8FykqKpLaiTEaOHqW3xnbvLofySJy+75rVayQzp7+kpKZZO0eDpqYGWbpwkYzde1/lB6VbU72sWr5CRu0xXuprte1WrpWxe46X6tJi2by1VEaNyZPCzflSLWkyaEDfoJRY0CTrVi6TCeP3kKSkRCM1fFjX0Bhji6lsBJ/RQwnVq1cvKdXGDg6jRlJKqiSqkHi6pqSkqHC27CdAPG2GJN0HcQkJkpScrM/oBDM1xUlNdZVkal1BWlqqiCqAxsYGO44WcfHUISmoQ5MkJ6eaQgHJyiRxvs6pKUaLuLhEe8/OorS4WPrk5ARHnzIEDZvVJ0dKCrfbfvSIc23UDKVpsvKBlhmvyig5JdnOxWt7uH1l3qQkSUpMsP2YoA1VX1+vO03Kj4l2vDOI2RLVqlaoKsxXbbNS+g4cplKcrO/ZCSbvNjiCNDbWS/GWjTI0L0/PwN0iWzdvVnWTIumZWXbNbgWtX0N9g2zbtE5GjhxlwvtpBfywauVyGThM3yOO99id+MPJTGnRdklOiJecfv3sXHJGjqRl5nTKEnUoRHWVRbJ96b+lctNcqdzyRnD2c3yOzybS+h8lGYMOlj6jjpDUPoODs+0johAhPJ/MukvK86cFZz7H5/jfQubQ02Tggd/rUJjCClHx2jmy6Z3rpKFmU3BGvaDUwdJroEro0P2DM6BJ6mrrJEH9SosNdgOr3dTUqG5RvSSqvxwXwdetr6/Tv+qeJqg/vItBFRs1VmvQOuGfuxjrs4GmxkaLPRITk9yL7gZobKhXNiUW0jq1QXH++1K2eY7UV28MzjgMPuwWyRl3THC0I3YQIgQof+ZFwZGatz77yohDL5b+Yw7Bbd9BThrUh6yprtZgL1WZ0hFqV4VIMGNNbY2kpqRIovq74apBDRu0cWuqa034EzsTmHYhiB9qamokOTnJBbmfMdTV1etW55JIGlPvyvC5oaHBhDo1lWRVZGVVuGGhrJ39oArUzOCMSPaEi2TIIRcER63RSojaCtCwA6+QUYd8MzhyDBiOBlSsVi3SriQUAlSrAhQtMzaq8FfX1Fp6MyFh1wgSAlSrAkR9yQB+FgEv1KsQ1dc3WFYtknfQ3eD5WPvkVJ8F7hgbF78mK167NDgSGXDgtZI78eTgqAXNpRED4cJ5TPjS/a0EqD3gFiWr+1RbW6sEcynknqQVWa26ulpJCQQomkfHq6VKTUlS4VOXQxu5pzOMphW1zggx265hrZ3HX/78Z9myZUtwtCPgg6SkBLP4vC/07knQrq59G1XJJ0ctQGDwnseaHHgUzLtaKreuCo5a0FwiSQQfA408/Hpz36IFhMI1wgpQ2Tq1CFiGUJSWlsiG9euDo9agEfg+GixauLD5Wu8K0feDAFEHO29/OwYWKAmh0xeoVauEMALKXLF8ue3HCt7lgfvvD8tY0Ik616mygZmSVPFYnfWLSHWmnPVKN+rDJ3WLhNKSEruGLRT+nN983bi+LSjf3+/3Q7fQe/h+/gfzg6N2oK5ToglSolkD3Lv2lJanf3vvGg3MQ9IyaF8UVXwnPA7kYOyxtwdHIpvmTA32WpBw2RW/vaa6eKNsnnu1nSAG2vOEK2y/LdrTljBIvEp5HL2nSh98YaWUBcq8xMIPP5Spd90tBxx0kGRkZAR3OYJdefnl0rdfP8kbMSI4GxnXXXON5PTtK0OGDDENQ8OwRUOghQigMkFfvR/wPtSX/i/qiDA2qoV499135a8PPCB777OP9O7d213bzsubYAflFm7fLk8/+aQcOuVQyQruBU4j1tuWoFbQ1zmSewOjP/63v8k/H/+HvP3WW7J+3Tp5acYMeeWll1XwEmTM2LHBlU5I7rrjT/LsM8/atWxv/ve/MkLpWVFRITfe8H/N59nemDlTDjz4ILnqN1fKxo2fyLDhw5vbZOPGjXb9l085WWa9/bb8+Z57W927Xd9vrD770UcekYf/+pDdQ3mZvTLteeFgb6jvCX/Q39ikChY6eP7gu1AqbNI63HrzzTJhwoTmtmoPkDCUjChwrB7lk2DCCvLszqJX7igp3bJZqouXSn3lOknrP0VSsgYE3wZCtG3xDKksmGUnxh5znWTkDLX9tgjf3K0BUxAXsfFiJB5gzIzMXjLz9dclKyurFQMsWbxY3n/vPfnamWe2Ei4Pr7HQ3Gx7TZxojZ6WmqoE0ngmBgJNf+45Wbt2rex/wAHBmQDUWRnbj5jo37+/7LvffiaoaFGHyG///LRpsk7Lnbz//iZMMN9hhx9h74rbxkbd0S/R1BkBuvWmm2XosGFywfe/J18/6xty5NFHGWPn9s+Vf/3jn81My7XXX/t7GTRokJx3/rflG988SwV4imPUhnrJzs425j//u9+RE086SQ4/8gj54vHHSXV1tZ3fvGmzlJQUN9OkROvPeZ7FO3380Udy+ZW/sfvYDtDrnp/+vLbbErn4x5fI0V84Ribus7cUFRa2atdIQGjiExx/AE8bmpm2hn9S09Jk0qRJMljpj7KJBi7DWW9JI3158zK4F1pHUlSxILXPMNn88b9sv0l6Se+8Fk/NhGjjO7eqK1dgaewJx10efLUjoq2KEyRnlRiyAYMmJyeriV4ha9etlUMPPdTSnxT4+quvKdFSbSjRSzNelPfff1+WagMNHTpUy0iQB/6iPqkS+IXnn5fly5fZ1luZM0Hdg1f//ao1+Ad6T3l5uTEV1mb+Bx9IZVWVCQ3fIXTPqZam4Qu1sdeuWWPDiZYuWSL/eeUVu4bGhGmpc1FRkbz00gyZrA354AP3GyO+/tpr9qx1ahEYR+cb9x9//7uVAxOtWb3a7rUxenl58sbrM2XevLlSVVUpo0aN0gaNl1UrV8nLak3mzH5Xrct6GTV61A6Mcvstt+r9w+WbZ58tC+bPtzpu3bpV75ljzI4biEI67vjjzVpVlFfIr664XPoPGGBloYwm7DnB6OGFAgEarnTAsvK9P3/Y4YfL3DlzZe99ndUNJ0TfOuds+44tRZUXdSeJxDWcG6DPDRUgb0WhMW1A3bHKtIF77w1K66GSlp4qK1etkmnPPqtt9p68P89ttOXcOXOsvtR13ty5zbwBzfLyRhh/4Tb36dNHZmrbzHr7Ldm2fZt6M3nGa1h5L6hdgdTMHNmy/B2pry5Qa7RVcvf+VvBNEBPVli60g+y84+yzq0Aa0TS8vhDB5bHHHauab5O5BKCqolLemTVL+ub0lWeeekoGDhykDT/S3KN//fOfUlNdIx8tWiSPPPyQERNL8eH8BVKsmnP6c9Nk27atMm6PPSQ9PcO0MwIEM/Pd3x99zISnYHNBoNWHmqCycc+qFSvtHq7hGOECKIBadQV4TmJyorqhC62xirTOCPbrr76qlme6VGrdq6qqrdHStW7Ugbr3UosLEK4maZTMzEx58l9PyEcffyQbNuTL7bfeZt/zXBj05hv/aMcevAMu1TfOOktmvPCibdRv5muvm4UD+x94gJSVldk+Mckxx37BmLo9QPdwcc0RRx0pgwcPlkcfejg4syP8fWy439RnucYsf3/sb83xVSiwctTrvqn32HsSC1/z29/Zd9zLe9+p7mdZaZncefsdRqM8VTpr1q6R8opyi03hgZKSUlOejz78sFna0aNGmxDedstNZr0IEW6/9VYpLCpU2g+XF59/wQQOnusC47MD+o09yT7JHRACeSSGZhsyczs2x50FAjVhzz1tn5c//sQT1DK4Z59y2qnGNPXq+jWoCwIRX3h+ujSoWQZo39O/doZp2Vlvz7Lvv3vBBUYs9AAEg8EQII/LfvVLc8tGjx5tjDtSLcHyZcvsu6OOPlr++4YbwoQLxnXh4PsSqPfXzjhT3Y1Gs0QIL25qkj5/0qT9VdA/spT5QRpn5Od/YveccebX9fhgFa40s3wIrQn9uHFy9rnn2DW4KzAajOjrwHVcg8b/z7//be4Z9U1TF4cYhOtgZuAZOCcYsMp54hkPXLiBynzAxy+AMqGHx6lf/YrVAwFGs7dFaJm4doeoJ1Flln6a0Z36fkvfqS0dfd2fffoZE1T/3gjEHbfdLtP0fnDGmWeoGyZSXFxiChaPAFRVVsq/X35Zaf81peWh1r+DMkQAN6uiAVhSX+7SJeqpaBvzzO5AalbL+zXWVQV7Idm5ngDakpd+b948M8cfffSxNUC2MsGH2oCPqsVBg8+bO8eu9+HmQQcfYgJDTzMg6wLBp6tFuG/qVLlXGQBY/BVkBWlQ7oYZwwGfG6uEhoykUb0yG6AWspZOQxVeBocC0qVYLYt1sLbqe5Pq9/fk6vP5rlIZoW+/vlJQsNniDzT4RT/8kW0wLkBzeyBo49UVKygosGOveLCUkyZPsn3cRuqOKwVgaIBbBZOzAX8ecO6eP99nW1sm22effYzJpz/7XHCmNfx9bLhYtOOJX/qS3H7nn+TCiy+STWrlsPZYKd7f02Ckur3QANpiXf17I0CAdgQzX39D1qxabQKQlpau97sSoAUYM2aMtS1x0/gJE+wcYQFAqDwyMneMqbsSGX3zgr3W6FEhAvjeEJQUJlpsyuGHGfEe/utfZZA25AnaOHvutVdwtQNEJbYijQ2wSE8+8YTMeuttOeCgA+XYL37RzpOtI30MKiurpVrdrfpahvjQudpggWuQpzAf/fc3XC8/UibAMsIEHp4JGv3FgfAa9EuyawiRdSJquXyNUkhTq0O8YpfpdampKZZa5SaenZaeLntrEP6zyy6Ty375S/nlr38tl//mcmPMUGB1PEqKi41WuHPEPjDqW/9906wBzIwwcQw4pqy25UWD875zvrULMUm04HlkME9XS4F7SVaNTneGgoEqdccrK6rMcyAmvOQnP5GLL/mxXHTxJfp5SbNATJ/2nEy9+057lyOPPNJoB/yUB+Jb5hvRD+ldURTv7oIeF6I91CeGWMQjgCxYvsYKYMqhU0wjMvIA+LjQOupUazHCAKD1YfwvaCyw//4HSFaWi0MQLh+k0xBkauoCbVetDUpjlpWW2jClbVu3WZp1770nytnnnWtM4K2RF5lKFUKAgGAHIRblE+MhYCQjuBhty/MQGFwOkKhWiVEI1sGnQkeSZMCA/pZ0yM3tr/sDpV+/XElOSlG3pSrop6o3IUepDFSrAp1wRR+4/y8mNFixS3/yU4shTjr5y/acr6krBPPjMvl+Ff8ZCxA8LB0uZFsEzWBAGZAw2b5tu/XBMEGTxAxISU6xZ3uaK2GMRtk52WZZiReJkZhw2F9pgbs2aPAg+dmlPzNl8q1zztG4eEAzDUerBYIGc2c7z4RRBx988IHtj9AYandBdPnDLgTaC4agsXDtOM7NdTNk77n3HmOQrQEz+6EwaCSYES0H0HQIH+7chg0bZKXGERAb4fKgIYhT6AAGdKqOUdfx2aeflrvuvFNWq/vAs8i0EbPQYH169zHBYlwdaNRGA5SB4OC+YWn4hOG9tCH4r6jvfocyvHcpUmySHuxHqt+l+7GyxE83qgUcpbFaRXm5rFy5Um7W4BgG4Rr6Rv7x+OMaB5wh11z3e8ts4aZBp8OOONzKDo09iLtw9YhPoCnuMcIGQi1aaFwDrS7+yY+DoxZQP9956oywe8EL1QXz4HmLP/5YnviXS/d6fOvss6VPdrYJmaeLUy5xcvTRx1jG9K677rQYtbKywjK1eAGbNm6SO26/w92gIF467aunBUdiVu6Rhx5W5bNW0jPSra2ItUL74HY14lauXNK0+oWv2wEjFYZPOtX2wwGWCOizU0Dj0z+Ev5+b209NdLlsWL9B1q1fp0FytjLYSFm/dp1MPuAAS+UeeOBBRjRG4M6ePVuGDB4qvfR4yeKPbbjP6NFjhL6O3kFQTCaKxgZoxtnvvmsxELNc5+r9vMO4cXvI0qVLTRvC8BMm7GVDl+jHKCktkUVq6Q4/4kgNthdY1o2AGytUULBJ47FSc08Q5ialCqnUpUsXm8UaP368zJ8/39Lj1BEQsNOvNVYZnPp8uGCBxSswOdm9fn37KcMx61ZjKD3/h+uvt/vO+PrXLb1O5mr7tm2yZesW2Wff/UzYaAvAu7BfoDTdvHlzc3IF2iJs/v09/H0HqyLj/H77TVLa9jKFgwAsX7ZcCouKZPLkySbAy5YtDe5wkQqCwntszM+Xu++6y1yzftqGvbKyTPIoo7ysXBZ9tEgO1jbgHaFPrbq+K1asaFW//7zyb1OYF15ysSkJsnh/UGE/9Sun2X20GZnP1avXmkvL8/dSVz9vpLNCJIf8ewKuqVIvgxivO1BSsFIWPHG67Y86+QlJzx1t+7tEiEIBI0J0mJHEAS5Tr6xM62kGMBbM6WFTHbTBcc1sVITew9CZFOsbiM07RWkySgFXCn+bN3R9DPGOqfQfF3kGR6uaa6dMUYP7pec8MtUCpaq13Bn6wIB0klZXV8mMF2fI3LlzjDYeAwcOtDgKq+g6bLFw7b+zbzM+ybnQP+dpaJ960p1zVyGg/LH+PS2a8s2SBr41dOD6devWyx233SY33XKLu0YvNrdVL4NG7hzlufvCgXF3eBHeKpIwwc0nCeLjuiqNbREMXz9G52f1zrTyexq7rRB5BnaNqgKhDIIrBjO39yyudYJEcK8Mrudwu5KSE40B7Br7Gx7cT2KArBtMQcPjqjHGy4WKMIsKj17HJ9c75vOfDfZc17TEQFpvFSJjHBO0gPnaYaKOYM/UuhWohemr8VODDUsKZXhlqkQXb9GR654XvLvWUf+bkoDxqXejneNeRxmrm25eYELrbOXo1zyLpEx9fWNwv1McvOP27dtkkMZ2ze9r99ttUfEJHsnjj/2t2f3ELabfKjR7SLwIrWknaMxzSOAgsD2N3VKIKA8C0VAE/vBGahqLl2jDKsGiAQxCIxMvYTHQzsQ/dJSG01YwF3FPHUyh7iENn8xQnAS28HOQPKif09qOkakzjWsWiBsDpqMQz4yMy4OzHJMFn3YqdibguQiRvbNuJsQIugoKgsS78w7wuV1rAmOPt7q4fRieeri68GWz0ASKw3UVBJu9jy/HlW/Psk9/X/fBkjdapzK1yHRXJKMklTf8+/QkIglR91KgA9A0EMSPZKZREYBoBQhwD65fqhKY5APl1KhlI8VNuhtmAl54qqpqlPndeaxdGmnowIVzrBIZtJvrE1Ih1WcaQ+l5GjdNhZ/n41a6OU2uodHepMGJCar12YxyMBdFP7HCWEOnSBBMfQbPsae1hvFys/eoV9ixyxAiWLwbQlVX56wz78gzEWqYHitLPVOw8hp/8M68h9WR+5RWvl64qpa6VyRpW0An0vXQmMmXJHxcoqX72ce7rgBXztd5d8IuFaKuBMxN42IVaHQAMyA0xF1OeKqNYWByu063WAQ2EkyrazkkHqiDZRON6VxdECyYGIvnl9tCy+PGUi82hB7fnzpjVW0wpW4IGil5E76qKvskWeCZPFHLZqmp9Iw0UwiO2VPsnM9MMgoEgTK3WYUNC0y5rsxqowvfeYHz9CHYZxKbCY0pN2dFP0drfGaEyANmholhJKxUrbpcdPrxCXAX+d6sXzcDV9FZLTfXCobk+cboWgcEDE2Li4glqQ2Ymvq2MLiznLXK6FgdtLAJpAmPCguCquXxTjC7PYv3T3PChXWkHj5178um3Br95Ly5dSpAZaUldp+nD0LzOTrGbkMlr+D8IMfOwJcBs5nGVXcHJsW1gilwicjoYQVAdytVyvfP4JnUi5m/1IFYig5kYg60O4zsBY76Iih2TN31HdjXCMSYnYQKi63Qt4QQcNziEgaJAH2OuXj6DNw+c3u1LEcL527yLAQMOs1fMF+ee+45KwtrbcT6lACeCR1UGw7RXNNZJPzkJ5dcU7T8STvIHv4F6T1oD9sPh+5iOvpRnp8+TSZNmiy/vfJKmTR5cvO4sFhgcY+6QubTKxMRs6D1k1NgSHXblC9gKhgOJsGn96nbWEBWifF/dG4yynvFiuXmEvXLzdVnIqyNNo2ADsbVq9fIqlWrpKKiUlhEFXcJgcpfv0EWLVpk0xWqKsvtWvo9iosKJTMz3SYpvjPrbfnkk3y35ecLE+gYbIqlQFjmzZ1nfS+DBg02944MHKPL52ndKIvviLkGDhooCxcskPUb1smmTZ80l0knd3pamqxauVLe07K2bNkqmRmZ0ienr9XRZeLcHB/vhu4qYDmx5j4+ok+Ikf9MELzmd1cbvdpOCkRwnvinG6nPnCuu2VJQIDNefHHHOWVRoKaisHlOUfa4MyUpww096hFLBNO1Nxe/Rn39rdqAnZXShR8usBmYxBYkFWh0Amjmq7ils9xMUudKJcu27dvlwb88YDEIsQEM096jQ7975aWXbNDqsqXLZMyYsTaEJUWD7aeefMoUAI2Ey0Ta9sknnrTOSqZV3HfPPXLbrbfq+WUWI21UZn7umWdUiEVuvulmG/FAbPX+e+/r/iv2LPpMFnwwX1aqMKxatdI2ZW1LEBQXF8s///G4THvuWWWoZaY8iKEe/zuzYR+3ga/5KngPP/SQJUwee+wxefvNt2ykM53MDC1ieM6LL7wg90ydaszZq1emXY+w0gdmyRDcSeiqtCK29BbPoydF668PPmgKF9B2jCVsD9S57TXElf4cPOnL2xlEFRjA/CxDFWodMI3V6na1Hf4OcMcYK+U7zPz8EoaVhMJfd+DBB8teE/cOzjq0V76HWR51WQoKtsqHH34o56p2JlagrwjB8fX2Q0QsntDv45QVsQJcQ0CNdWLcW4UyHsehz8SrUQfJXJ43Vbu//trrNtt0zz33siEo2aq16Wg9/Igj5P777pOXVci+ftZZblF2xfd/8EMTDuYo3Tf1XhXev9hwHotDFPTSM27v0st+biMBQKiyOf3MM2TYsKGWmYOBEXiYg9nAAwYObB46tNfEvSwrx/wrJssdd9zxRh9o43HwIYfIlMMON+sL85M2xpqeceaZctTRRxk9yspKLSliy0Prs3gmymnLlgKbqo0A25LSauWxqny6/qEWcfL1D6VjW57wwFr4YU2hCHc9bcwId8CohLYjE9reAz1/pnQNBX1Qvh8KnmR+086iXSHCZDL40U8AY4DiaV/9qtx/73026BEwDut7P/i+VZhh7sy29IMY+Y6Bkn6wqR+/RTlMlqNcNq7j89Y73BgqtL0fw8V3zA1imBDlMBzfCU+D/PTHP5aJe+9tjAN+8fOfW9lHH3PMDvU+7/zzraFwc3x9fnHpz+zz11dcYfNtmK4AeOb53zlfRqul4Vn06iPUWJZvnv0tGzh69W9/azMwmSzIOgaMJDj+xBNtAtm39d4EtYCAuAOkJqTJd793gVz+q1/bgE0/rg2mBNCTcW9YDYZCWVyiwMJgCVr6a+ibEVmgMQxTtVFQr736qrbLV5oX7y8uKtZymtTqpsrwvGEmeMBnDzlmYx8wWxRBQdiTk1N4gsVGHONmPvrIo3YduFyt7Y033CBfOf10mTLlMBPId9+Zpa7V03L9/90gU+++28bDAcZGnnPuOfK3x/7WPKHQ8wvv69sBMNSH6RWehxiS5NvvRxddqJb8XtvnHjbGz3l+APPf/6C5PJ7BoGKGasFzfmoICG1/4MsDvg4A3mfwb+joiUiI6M4h1TAiAwIpiI3ZmwgQAzfRpjfe9Ef7nuu4HvDyaFWuhwiF2wttchjgk/sARGQgKtcxMzMUDAXxzwRMH/awdHWlyy6BQ1S7HnucmwrB9Vg76rPPvvsagakLAjknGD/GM2Fy8KvLfy1XqTA8oi4Mgxt/9vNfyJV6TKzwkApVuQoHHY9oWVwpGoep7Y8+8rCNPv7dNdfIhAluvs/gIYNtaw9YRAQldNUjGggFREPed++9slpdN9+fBOapxXlbGXC2MupydQ1xRzdsWG9zk1hshB5+sEzdMwAjwLDMmGWOFvBWj3eY/e47MnfObKXxcumj9WEaCcOLbrv1Fhsh7YYzNZl1Zh8BOvGkL8ktt9+utLxM0tVKAUYP2FJYaolMthXvzXvPBOiGG2+UP950k0zef7K88cZMq89ZyvTwC0qVQbi8LwNQmZOEQDCAFqsEUMKMTud66MV8L6ZQAASMdmZ0QyiY00R5nicjzY3y8Hzoy0PREhd6UEee0ZEAgYhChFlECL6gDEpBbEdqg8H8uAuYapiCfa7jeuCtEtdTMSZW+dmVfHoTTwW/+rXT7brQ0caAMvwzETCEwGtTGpZ9r+H79c9Vy+BW9ud6QH2Yt0SjoOmZp7RkyVITQLRsjrpggCkJuDQM3Dz+hBNkiAoBAz6/ePwJZmW26jvR+UuamJHLCCaxBoxy8imnqHubZcLEu2DliFM6QtuJY9Tpgu99T76qmp31F2655VaZPm1ac8Ljk/wNsmb1Klm9erWU6nuRpVv88WJ7JrRkY98rCTQpzASY9MfIcq/gsP7EQmwwHSlsmJXrs1RBsC7CH264Xq1usQXxDMglKbFi2XITOpgzNS3dyiKR0Twiwv62jBqfN2eOxqZ16obmaV2XWBlTDjtMlW8vc6Vy+uaYQsJSwDfUHzB2DqAIGEAMf8F/3iIB7qWdvQX3QDhx7/w98Gl77eH50JfHgFzu8YKMMWCuWjSIKES+AuGmC4e+QNuXaXscCQMGtiw51BaU4RvG+8pusKmbEIebQh+Jh78W14tME3jn7VkyQ4Nm5t0jZIOV2W3CmMYNXiDx6Rl7BrJUIOhXIRnRu0/LT68QXFtaXNUtsyiLgzQp833A6lWrbIEQ4Kd2hwPaGhcNhZCdnWP1ACgFUti4Pr/57VXyhWOPNZdj21anlBjJ/YMf/Uh+8MMfGgMiEN7VITBmY59yfQoXZrrq6t+Z5SfBwahxgNX6vpbD5t0WsK9e770H8Pz06ZZiJwv4o4suMmHDnbpfn0U8BmzpK30p0uyenmS8KPc59Rx+d9WVGrfNs+/69u1n7iLJALwIFowBL8+YodtLtuQWCtdPtAtVquH4ryP4e0KXC+gI0AzBZlIiyQZoytIB0SCiEPmKeKKFIvRcuO93FpSJGwWDlZY6LeRTrDa2ThuVgYmAmMELGA00eIibLnyMMuN53z5fvq2x0Pnf/a6ccMKJNmIAobThQQq0vf9BMVLBrkeejknH4AyPofOWY/peWFiDT/Dqq6/ZnJqP1UKRkSOhgBuCZQ4FiQ8ygMyynTXLxQVMbbDgR8FsXet8VQEmcXPQIW4Kh1bOfQYILje3jQbGQhMUs3l3mKxbKPx0kNBp4uFA2WxoZKwN2St/Do2NG4eAMRD2zTffNMtBPxXKjLq7HwhwCu44teI3/OEP9mwWm2GqCdabzGGd0oG2ZWoJAnj2uefJued9W9voO/Kd714gE/eaaOWE1tcrc5Yfaw+h9zAVBngLFy1w9VFQiz5caMrQW6uOEFGIyJggmWhyTBzSefedd7U6R/DFPpX1rlR7wFx7c9keiGnee/89WaIMOuuttyxRgKsFWGILf3Xq3W4lSjQ6WhO8r/fwk4EE2C8+/7xs3VKg39daPTfrfpIKD26gH+rDyjE0KvUP904jR400RkHwiAdZGgsX8Msnnyxbt25RjZluvjrXEecQa40aPVpdNDcmDuCisewVU6D/8ffHzSUkViCDCN7RGIXJhaSjmWD4zJNPOVdHBQqErtLDhttG3dD4PtPEPudIjmCZeAeuZbYr4DtAfBpaFhaP61meivbleiyXz4Bh2ThHto36UC9GULPIyczXZ1qMRbz2gtILMNeLeA3lxCxegDan3Rd9tFAKtA1efvkluw93mViX/i9WQZo1a1ZzVo/4iHlkLFjJqk3Un2ezkUCg7m2VN/fwHrz700pDhKAjrwjrx9R6yuNdmfSIgvLLFkAT6OPd4UiImJ2DcYhNYGifVTtNfdVJShSSC/4clf3BhS0zH8MBAeM6gkk+Iy0oQUYIsGbbww/+1fZhSoI/rALa7emnnrbzXzrpJHOlEKCJe0+UQf8dZEx66mmnyfeDev8xWI4K4vMuHigIXx8ISf0jvRMGEME7dMohcsdtd2jw/b4xLsE6rgpTBMaNG2tam3QwCQ9LDQcuzp/ucIty7DtpPw2gv6H3+p/ocJYVBqEhfUaTY+rq0/Khq/R4EDO0Ba4a70Pc45fl4r0J2olR2ecZ/jmAclAO/hk826/Q48HyVqF1mzJlinU9uOWqbrNycUV99o05RoDzxFosB7Bp00ZrG4Cl+47GgJx/5umnbY07QJuMGe1+mxchfenFGSZoKERWdgInnHiiPPXkkzJVlTnZt1DAI/49eDarD5G5BCjCUPA9YHY091Aec5rgU96R2IjJle+88465yWR220NUUyGQRISKZodZgD8XK2A8N53Al6Rl6q7rr3FCZF/pH6wIq2HiJpCexd3iOojiM07twWuQaOsZ6Z2ItZrUvXxWNedragkRbFagSU1N04aqMqKfc+65Vm/qRX1JSJAEoM7RINa6dgQ0qxfEjoBFItlArBQOkeoWiV6Rnt32euhKJpIkBvyAC3/pT3+qyvorcvAhh6obXGPtTz8U7iBuuFv4pQV8RyoeNxxEqlO0YGQD8Xo4WuzUVIhwleqook7Puk/Xr+NWgSF16taXc/0vbATtCAkdpTbqORhUmaEag+CW76wzT5mU4B9G9eW3B+oYC0FDr3V1Vj+emKvW1fmkk0+VX/zyl2q9Jtui+mvWrLYVQ3HR6MSlrr6+6AFGT3M/cVRH9Y21rh0hWgECBPRo5UiIVLdI9Y307LbXw/i4h14AEAbA6AnoyJRz6Mo4P4tP9XvPM82bKl5iYlxoBI1+rs4Ctw6FSKYuFnTrpDxeCu1sWRxlQmhkAhDPXJRA0IKEgYGL2xwjYKRSmxrr9TvVOvo9AoXfTVarq2HDWniePtdtjVZf18AkHqhiSB3bwN2jn2pt+fFlYO+sdee2eNami3z7/w6USDYCI+CPpkb1QpRGLIPGUCpcq1Z0hqhtjvWMfrjRJNxvNA4UrB9JEQsQIuI3EgzhFESPTsqDOGZ1zNoQG9ATztTtYIi9MqQRqC03hRzb13odDIgm4ufYmzW8lmkayLS8iz12FjA91pJyKZ/nUFf/XNLhzfUO0Lb6gO+5Dm3KvQyfoTFxY7G+7hlOuP5XYRZeN+gBXaBZotEqyRbIJ3vJuVb0DXNsdFZFyvhIaE17IZC0H6GBdU3ofrRAcIkHI1nYSOhSIfIukKWEtfIwn80AVYYKZb5ogOJhC4URG8bWMsmwMS3a3EN95s4ApmZqAo1KDEP5PKejOretX1hYY7uGppGhi29g6PW/BBgcxYebi4dhSgq6aFuGo3Rb+oY7tnPBF6H8Ad3hDSesLtbuLuy0EPmXxyKYhtGKx8ejwZOd5g6+72qYhVItD3gmjRMrU0J7iAyxqSeMDsN3F2hkb42ZXQq9usqS7u5wc5ycZeD93ej67uEOikUwia95gil2bePuwk4LETrAEQgmZhVQmMQxYqAgug2mebQxIBaaLRbtTt3MYiozd3ejtoVXACbE2ri+A/ezCiwB1hdL5BVVd1La853nD/jRuf9uCnxXY+eFCBcOKQ8qjPXpafBMTDgJAUZ3U6f2agEhESDGf8HM3WF9GIfmU8Ph4BuYerJQfiy++6cJJkCq3Jrft4cUVSi8O22utNalq7FT2TnTpCrdgEruaphwqECTwfPD/MPBEhIaTyFANCrt2tUK6pILL7ROPZbBPfCgYChPOFBnZTQSG8zApZM4EiL14+yuQJkx5Akmxtrvajjl6cYqdoZfuyU7Z78lpI3vNExwchcCgaCTE9fBd9y2BTEILpQXINDVAuTBEBLWkeZHwiL+sLPWgWCYT/qj6MlnPBxzlugt59OPkfu0gfch7bw7CBBw1jDZkkhdafk7LUSmZVSjEwO5Y/vY5bBBpcmJNrIhnP/rfva+Z90Kxs794fob7MeI24JqsCH8ZAcPP9KtAMqv4QE+OWbNacaFMb6MEQZ8MlbMjzcD7HONh7+GzY/w7imgrHDl/OTE3QUmSChadee7igM6LUT1qmXcsq49x4zRwtwHrRuNGFo7tE+DyhXf9TSwSiya8afbb2/F+Mg5m3UeawDss0htqepn9rK+A58cM+6LTw/2mVYAGDzJtUwJYUDmDdddb52JPQWGbJmHEhzvTkCI3IiHrrFGnRai2vq6mMw0ViF06y74oiEU2bpQEAuZ6xQl2taZbWcNGJbi91dfbVYpNPGgRZtwI0Tsh6MQQ1IYaMmM3dBBom1BuYx+ZjApawzwY2bA/xhYdwM6uT636JQV1/PS9mlvHu7tuxYYAKxRLKjYvi7Ya414HxyB8q0rgr32gal2w1ja9CJHAOlFy4b5TRnFz4rsLpi7po8IfQwBfLRWyDpyg/ritvLJ+t3Wzl2At95808bdhcLRM94saCQwG7gj+FnJTH3A9WOODEkOfheoJ2BunCqraPUNnd1MabFJk2zELN3IHrCGzROLEDdHQnVpiwcRn9QycdAsUXKWWzWlaN1/7LM9QBgSCtYrHCWInxAaMjWkc9FS0Mhr99AN5nWfbgPRCGo4MPqA8rjdBD+WsVT6aJ6P4LnZsNTP1W2HTd0Cv2/1D4qIBFYD+sWvfhV20hd0xRXq5CtHBFMlYh1Y2VkgBFFbfKWZG/7TJHVqQc3N0mPOs0Hb5n07dvT19O4MuA2Fxd2ex6JB8YbZwZ5Iap+WCX/GVRlD3C+w1VdvlMINHa/DxYPpMATRvAfpZpZhwudnjBSzIfm1BLJkWCU0kWl6JX6txlqct/Wja1lPAWIFBcUICIXwGLHoO4pBGtFU1Jk14tCqft86lq1+btVRN2SIn2hxY+LcZ3gNx7ye3117rRx51FERx2dZnXnn4Lgj+BmduHBMWAvF6LFjzO3zW9slproDUBjmjprWep3RVjfu4RP+INZu5g9tQ9ZsgEf4NH7RjZnPnRUkwE/KRHs/6e2yzS7ezBrdei6TSUL26Bb/eu3sB4O9yGB0QCwMCcJdztRu3BcYFlPuB5ti0r2QMoi1s2DQUTOR9MONAHeH0SL0cu71rijJCywU9eP3WdGiXJBg513fmQeuFLNef3rppR1OOfbPi6aaTIbjB5GZmn7v3VObf+cnb7hbJIa4iO9w6ZihSrKhuwG1YyFx6/ZofafvY0KgUKhu9H+8O680B7jYnQXldtQx77Fu7mPBHvJybLDnYJxKXJQ51M2WRNrWz59u+10F+LhF4Jt3DFgnBAahNEulAmX7+slUbzPnnYBvnBYCqeDzt/Xjo0DLDf5eXBUagPJwv/hhMN8fwnehz9hv0iS54qor2+9wDQMmHiIIflYmc344DsUpp55ic5mYmp43YoScd/63Zdiw4RZPnH3uuTakn++WLllq6xx0ZtGP7kYkvgCeJ/jEFW/mD/aV/mwIQXdjy8rZUrTWLdtG6NNrSOuFRuM2ltRa7auLN8rKZ0+xk2DCl+6X/mMOCY4cjAl185og1vR2tboe8UnJkqzEAJWVVZKe7gK05n2lapWWz8+EYL4xRCkpnehrUMJzP3WEsZ2rVW+uQiyC1KRuZXVdg9UHMLefYfeUy/vYEHyNvVgDOy0j3dVf3+W6a6+xX8PmJ+pjAVautqZaMrSsGKpp4Lm2UlKc1qGqxlbNYbVX1rBjqSuvWLobLfUwckSJJqkoq5T0XhnNis/zBN4EPz2TkZGm9OEH3Vw7Wqyq5bPYS2fA9HFWyKX9IlUTAVry0g+Co9YjFTycz6QgUBp6zD3BkdiNkSwSDMTLdDnaUjwWbm8Lvdf55u4V+dwZ/zkUO5TCs5p33d41110XswABG+XcTqO2B1sJSduGd2UGsAmN7rOSUE8JEKD+vEcXkXtHdFG5xh/tGIKNi19rJUADDrx2BwECzUIE+ow4WLInuIX/wJq3r5IPnvypSaMHj8RP9cFzNI3jr4G41Dn02NODff8Fq2oCfODEhCgeEAE0pI+tfGYu1oZt0jr5+gDiN18jyrQqc01gXXE9WBmUxEHwOjGBZEVnxyF6hQGoh0fo+e4GT8WtbdtH1zHiJJ7fnQ2OQFJAU+DXBwS+/4kYNyFo11iBxTc3Ube2LEFybeHzV8uK1y4Nzqg7rXKRO7H1cmgeze5cKIrXzpH8mS3CBBJTB0tO3nGSmetWtmHgKb9zg+bbGY1DW7d7P1+GMES0QMswPTtR6+jh+19QArGibT07rLcimms87FptWNZwY87Rpx0kAvyQsM4glHax0DEaUB4JIpSLLYMcnKeftLxggVQVfxicccACRRIgEFaIADHS5nkPSHn+tODM5/gc/1sg2dZ/v7PDunChiChEHghT8eq3pGztK1JT0lpCP8fn+Kwhufc+kjH4cOv26Uh4PDoUIg/nf8ZJReEn0lDnOvgIp9euWik5A4ZYlqorTW5nUVFWKtUVxTI8j19NU7vdBlRx04Z10pSQLH36sob2rq00Pjn9Slvz18jwkaNtqahdXKWugZKepZPz16+VAcNGqQtNv86ufDHHCyWFWyS+qUEGDh7iToVUqfeAMVIXdM7HgpiFiGEZHviWFRVVsmzZchk+Zg+bpu2yU21q1wOgLvTeF2xYK+MnjLepBeFANobZjcu1zr1yciWrT47e2/lREZ0F9eWZ+ObrVy2VvOEjJDu7t9WP2OjTDHsHXqGpUbZtK5L8T/JlxNgJQt+fo3NPvp/jRehdVlIqJds2yx7KH5bI0sqEtjv9kj0uRB4lJWWSn79BcgcPs/4IX/GeRLlaoMLNn9jqpL7vqT3AvCtXrpK0zN5qkfopkalzz6Kmplq2fLJeBg8aJNk52daon0Vs315o63D3H5KnipbO4559TxR70bYCqSorkdGjxwiLg4Yj9S4TItOoKjTl5ZWyauUK6a3aPTs3164H3cMXnuFdX1Dh1gKpLC2WceP3iGiBdoDWjzFZq1csl8b4JBk4LM/q3FLf7qh4i6CWa323fLLOfo2vV1Yv/abnrWFPwPph1CIVFpXaz3MOGjZC0jP1fTndA+9LN8cmdSmTk+Jl1KhR1i1hCPPwXWqJAERh/Bu/lN3YFCeD8kbp9aSSu4NSjhnratXnXrNK0tNS7ZcZrH8lxpZBCPlVgsLiIhk4VBs4PdN/E3x2JVwn9ZZNG6WuqkzGjlMX2GKg7njW7gdGeyxdtkx6ZfeVnNyBzYq2e6Dxe0W5bF6/Wgb054fQBikTOxcuEna5EIWqFsw3PwmSmJKqVmlAMP4LgoUSLdqq+nucX0snGcNtCrduZiKKDBk6TLKyMpv9cKtGpDqGQ1Dv0rJy2WS/mi2S03+gpKVnhPSBUYcYyjS4ezxZGKJSpBazuqLMfgqeRdOtIzig2Wcd0IE/WP9NGzdKYWGRpPfqLdn9ciUxMVx/Uix0oXAHRutXqmtftG2LpCQlyKAhQyUzI42W6JDWu16IPDzXKIiVNqgpbZR4I1ZGr6wQgkVXVSwFHZCMkkZ4Sou2WQfZ0GHDVXh6BVftHEKqLBWVVbJh3Vqprq2X3qoxs/r0VgvnhunHCuYiVZeXSVHhVqmvqZIhQ4ZL39wcbc7Yy/osoDlporSkXfkZGH52JSklTeNSDQHUc2HMHWMdY6E3ZRFflqk3UV5caEOehuXhVajy1u9823aEzgmRyP8DnBdeXXo4CoEAAAAASUVORK5CYII=;" vertex="1" parent="WIyWlLk6GJQsqaUBKTNV-1">
          <mxGeometry x="880" y="667.67" width="169" height="54.98" as="geometry" />
        </mxCell>
        <mxCell id="nkoxV0CE2I4P7DB_79t0-46" value="&lt;b&gt;OUTPUTS&lt;/b&gt;" style="rounded=0;whiteSpace=wrap;html=1;fillColor=#f5f5f5;fontColor=#333333;strokeColor=#666666;" vertex="1" parent="WIyWlLk6GJQsqaUBKTNV-1">
          <mxGeometry x="740" y="490" width="255.27" height="40" as="geometry" />
        </mxCell>
        <mxCell id="nkoxV0CE2I4P7DB_79t0-47" value="DATASETS" style="rounded=0;whiteSpace=wrap;html=1;fontStyle=1;fillColor=#ffe6cc;strokeColor=#d79b00;" vertex="1" parent="WIyWlLk6GJQsqaUBKTNV-1">
          <mxGeometry x="60" y="550" width="230" height="30" as="geometry" />
        </mxCell>
      </root>
    </mxGraphModel>
  </diagram>
</mxfile>
